M48
METRIC,LZ,000.000
;FILE_FORMAT=3:3
;TYPE=PLATED
;Layer: PTH_Through
;EasyEDA v6.5.1, 2022-07-30 07:33:27
;979763ed04074d789ee4af78e92af6cb,10
;Gerber Generator version 0.2
;Holesize 1 = 0.501 mm
T01C0.501
;Holesize 2 = 0.701 mm
T02C0.701
;Holesize 3 = 0.800 mm
T03C0.800
;Holesize 4 = 0.889 mm
T04C0.889
;Holesize 5 = 0.900 mm
T05C0.900
%
G05
G90
T01
X007620Y-043180
X-007620Y-043180
X-002032Y021336
T02
X-011684Y022016
X-011684Y020716
X-011684Y019416
X-011684Y018116
T03
X012648Y012274
X012648Y009734
X012648Y007194
X012648Y004654
X012648Y002114
X012648Y-000426
X012648Y-002966
X012648Y-005506
X012648Y-008046
X012648Y-010586
X012648Y-013126
X012648Y-015666
X012648Y-018206
X012648Y-020746
X012648Y-023286
X012648Y-025826
X012648Y-028366
X012648Y-030906
X012648Y-033446
X-012752Y-033445
X-012752Y-030905
X-012752Y-028365
X-012752Y-025825
X-012752Y-023285
X-012752Y-020745
X-012752Y-018205
X-012752Y-015665
X-012752Y-013125
X-012752Y-010585
X-012752Y-008045
X-012752Y-005505
X-012752Y-002965
X-012752Y-000425
X-012752Y002115
X-012752Y004655
X-012752Y007195
X-012752Y009735
X-012752Y012275
T04
X012446Y029210
X012446Y026670
X012446Y024130
X012446Y021590
X-011938Y024638
X-011938Y027178
X-011938Y029718
X-007620Y-026670
X-007620Y-024130
X-007620Y-021590
X-007620Y-017780
X-007620Y-015240
X-007620Y-012700
X-007620Y-006858
X-007620Y-004318
X-007620Y-001778
X-007620Y002540
X-007620Y005080
X-007620Y007620
T05
X006604Y013716
X-003556Y013716
X006604Y016002
X-003556Y016002
X-003556Y011430
X006604Y011430
M30
