G04 Layer: TopSilkscreenLayer*
G04 EasyEDA v6.5.1, 2022-07-30 07:33:27*
G04 979763ed04074d789ee4af78e92af6cb,10*
G04 Gerber Generator version 0.2*
G04 Scale: 100 percent, Rotated: No, Reflected: No *
G04 Dimensions in millimeters *
G04 leading zeros omitted , absolute positions ,4 integer and 5 decimal *
%FSLAX45Y45*%
%MOMM*%

%ADD10C,0.2540*%
%ADD18C,0.2032*%
%ADD19C,0.2030*%
%ADD20C,0.2997*%
%ADD21C,0.1540*%
%ADD22C,0.1524*%
%ADD23C,0.1030*%
%ADD24C,0.1000*%

%LPD*%
D22*
X76200Y1182115D02*
G01*
X76200Y1073150D01*
X76200Y1182115D02*
G01*
X122936Y1182115D01*
X138429Y1177036D01*
X143763Y1171702D01*
X148844Y1161287D01*
X148844Y1150873D01*
X143763Y1140460D01*
X138429Y1135379D01*
X122936Y1130300D01*
X76200Y1130300D01*
X112521Y1130300D02*
G01*
X148844Y1073150D01*
X183134Y1161287D02*
G01*
X193547Y1166621D01*
X209295Y1182115D01*
X209295Y1073150D01*
X50800Y1664715D02*
G01*
X50800Y1555750D01*
X50800Y1664715D02*
G01*
X97536Y1664715D01*
X113029Y1659636D01*
X118363Y1654302D01*
X123444Y1643887D01*
X123444Y1633473D01*
X118363Y1623060D01*
X113029Y1617979D01*
X97536Y1612900D01*
X50800Y1612900D01*
X87121Y1612900D02*
G01*
X123444Y1555750D01*
X163068Y1638807D02*
G01*
X163068Y1643887D01*
X168147Y1654302D01*
X173481Y1659636D01*
X183895Y1664715D01*
X204470Y1664715D01*
X214884Y1659636D01*
X220218Y1654302D01*
X225297Y1643887D01*
X225297Y1633473D01*
X220218Y1623060D01*
X209804Y1607565D01*
X157734Y1555750D01*
X230631Y1555750D01*
X50800Y1410715D02*
G01*
X50800Y1301750D01*
X50800Y1410715D02*
G01*
X97536Y1410715D01*
X113029Y1405636D01*
X118363Y1400302D01*
X123444Y1389887D01*
X123444Y1379473D01*
X118363Y1369060D01*
X113029Y1363979D01*
X97536Y1358900D01*
X50800Y1358900D01*
X87121Y1358900D02*
G01*
X123444Y1301750D01*
X168147Y1410715D02*
G01*
X225297Y1410715D01*
X194310Y1369060D01*
X209804Y1369060D01*
X220218Y1363979D01*
X225297Y1358900D01*
X230631Y1343152D01*
X230631Y1332737D01*
X225297Y1317244D01*
X214884Y1306829D01*
X199389Y1301750D01*
X183895Y1301750D01*
X168147Y1306829D01*
X163068Y1311910D01*
X157734Y1322323D01*
X-801115Y1930400D02*
G01*
X-723137Y1930400D01*
X-707644Y1935479D01*
X-697229Y1945894D01*
X-692150Y1961642D01*
X-692150Y1972055D01*
X-697229Y1987550D01*
X-707644Y1997963D01*
X-723137Y2003044D01*
X-801115Y2003044D01*
X-775207Y2042668D02*
G01*
X-780287Y2042668D01*
X-790702Y2047747D01*
X-796036Y2053081D01*
X-801115Y2063495D01*
X-801115Y2084070D01*
X-796036Y2094484D01*
X-790702Y2099818D01*
X-780287Y2104897D01*
X-769873Y2104897D01*
X-759460Y2099818D01*
X-743965Y2089404D01*
X-692150Y2037334D01*
X-692150Y2110231D01*
X1055118Y2549144D02*
G01*
X946150Y2590800D01*
X1055118Y2549144D02*
G01*
X946150Y2507742D01*
X982471Y2575305D02*
G01*
X982471Y2523236D01*
X1034287Y2473452D02*
G01*
X1039621Y2463037D01*
X1055118Y2447289D01*
X946150Y2447289D01*
X-926081Y2701544D02*
G01*
X-1035050Y2743200D01*
X-926081Y2701544D02*
G01*
X-1035050Y2660142D01*
X-998728Y2727705D02*
G01*
X-998728Y2675636D01*
X-951992Y2620518D02*
G01*
X-946912Y2620518D01*
X-936497Y2615440D01*
X-931163Y2610104D01*
X-926081Y2599689D01*
X-926084Y2579115D01*
X-931163Y2568702D01*
X-936497Y2563368D01*
X-946912Y2558287D01*
X-957326Y2558287D01*
X-967739Y2563365D01*
X-983234Y2573781D01*
X-1035050Y2625852D01*
X-1035050Y2552954D01*
X-494281Y-2429255D02*
G01*
X-603250Y-2387600D01*
X-494281Y-2429255D02*
G01*
X-603250Y-2470657D01*
X-566928Y-2403094D02*
G01*
X-566928Y-2455163D01*
X-494284Y-2515359D02*
G01*
X-494284Y-2572512D01*
X-535939Y-2541267D01*
X-535939Y-2557015D01*
X-541020Y-2567431D01*
X-546100Y-2572512D01*
X-561847Y-2577845D01*
X-572262Y-2577845D01*
X-587755Y-2572512D01*
X-598170Y-2562097D01*
X-603250Y-2546604D01*
X-603250Y-2531110D01*
X-598170Y-2515362D01*
X-593089Y-2510281D01*
X-582676Y-2504947D01*
X-494281Y-1540255D02*
G01*
X-603250Y-1498600D01*
X-494281Y-1540255D02*
G01*
X-603250Y-1581657D01*
X-566928Y-1514094D02*
G01*
X-566928Y-1566163D01*
X-494284Y-1668018D02*
G01*
X-566928Y-1615947D01*
X-566928Y-1693926D01*
X-494284Y-1668018D02*
G01*
X-603250Y-1668018D01*
X-494281Y-448055D02*
G01*
X-603250Y-406400D01*
X-494281Y-448055D02*
G01*
X-603250Y-489457D01*
X-566928Y-421894D02*
G01*
X-566928Y-473963D01*
X-494284Y-586231D02*
G01*
X-494284Y-534159D01*
X-541020Y-529081D01*
X-535939Y-534162D01*
X-530605Y-549910D01*
X-530605Y-565404D01*
X-535939Y-580897D01*
X-546100Y-591312D01*
X-561847Y-596645D01*
X-572262Y-596645D01*
X-587755Y-591312D01*
X-598170Y-580897D01*
X-603250Y-565404D01*
X-603250Y-549910D01*
X-598170Y-534162D01*
X-593089Y-529081D01*
X-582676Y-523747D01*
X-494284Y491744D02*
G01*
X-603250Y533400D01*
X-494284Y491744D02*
G01*
X-603250Y450342D01*
X-566928Y517905D02*
G01*
X-566928Y465836D01*
X-509778Y353568D02*
G01*
X-499363Y358902D01*
X-494284Y374395D01*
X-494284Y384810D01*
X-499363Y400304D01*
X-515112Y410718D01*
X-541020Y416052D01*
X-566928Y416052D01*
X-587755Y410718D01*
X-598170Y400304D01*
X-603250Y384810D01*
X-603250Y379729D01*
X-598170Y363981D01*
X-587755Y353568D01*
X-572262Y348487D01*
X-566928Y348487D01*
X-551434Y353568D01*
X-541020Y363981D01*
X-535939Y379729D01*
X-535939Y384810D01*
X-541020Y400304D01*
X-551434Y410718D01*
X-566928Y416052D01*
X281178Y-4279392D02*
G01*
X275844Y-4268978D01*
X265429Y-4258563D01*
X255270Y-4253484D01*
X234442Y-4253484D01*
X224028Y-4258563D01*
X213613Y-4268978D01*
X208279Y-4279392D01*
X203200Y-4295139D01*
X203200Y-4321047D01*
X208279Y-4336542D01*
X213613Y-4346955D01*
X224028Y-4357370D01*
X234442Y-4362450D01*
X255270Y-4362450D01*
X265429Y-4357370D01*
X275844Y-4346955D01*
X281178Y-4336542D01*
X346710Y-4253484D02*
G01*
X336295Y-4258563D01*
X325881Y-4268978D01*
X320547Y-4279392D01*
X315468Y-4295139D01*
X315468Y-4321047D01*
X320547Y-4336542D01*
X325881Y-4346955D01*
X336295Y-4357370D01*
X346710Y-4362450D01*
X367284Y-4362450D01*
X377697Y-4357370D01*
X388112Y-4346955D01*
X393445Y-4336542D01*
X398526Y-4321047D01*
X398526Y-4295139D01*
X393445Y-4279392D01*
X388112Y-4268978D01*
X377697Y-4258563D01*
X367284Y-4253484D01*
X346710Y-4253484D01*
X432815Y-4253484D02*
G01*
X432815Y-4362450D01*
X432815Y-4253484D02*
G01*
X474471Y-4362450D01*
X515873Y-4253484D02*
G01*
X474471Y-4362450D01*
X515873Y-4253484D02*
G01*
X515873Y-4362450D01*
X-533400Y-4253484D02*
G01*
X-491744Y-4362450D01*
X-450342Y-4253484D02*
G01*
X-491744Y-4362450D01*
X-338073Y-4279392D02*
G01*
X-343154Y-4268978D01*
X-353568Y-4258563D01*
X-363981Y-4253484D01*
X-384810Y-4253484D01*
X-395223Y-4258563D01*
X-405637Y-4268978D01*
X-410718Y-4279392D01*
X-416052Y-4295139D01*
X-416052Y-4321047D01*
X-410718Y-4336542D01*
X-405637Y-4346955D01*
X-395223Y-4357370D01*
X-384810Y-4362450D01*
X-363981Y-4362450D01*
X-353568Y-4357370D01*
X-343154Y-4346955D01*
X-338073Y-4336542D01*
X-225805Y-4279392D02*
G01*
X-231139Y-4268978D01*
X-241300Y-4258563D01*
X-251713Y-4253484D01*
X-272542Y-4253484D01*
X-282955Y-4258563D01*
X-293370Y-4268978D01*
X-298450Y-4279392D01*
X-303784Y-4295139D01*
X-303784Y-4321047D01*
X-298450Y-4336542D01*
X-293370Y-4346955D01*
X-282955Y-4357370D01*
X-272542Y-4362450D01*
X-251713Y-4362450D01*
X-241300Y-4357370D01*
X-231139Y-4346955D01*
X-225805Y-4336542D01*
X-25400Y1867915D02*
G01*
X-25400Y1789937D01*
X-20320Y1774444D01*
X-9905Y1764029D01*
X5842Y1758950D01*
X16255Y1758950D01*
X31750Y1764029D01*
X42163Y1774444D01*
X47244Y1789937D01*
X47244Y1867915D01*
X81534Y1847087D02*
G01*
X91947Y1852421D01*
X107695Y1867915D01*
X107695Y1758950D01*
D23*
X1138801Y1282443D02*
G01*
X1146167Y1286253D01*
X1153279Y1293365D01*
X1157089Y1300731D01*
X1157089Y1315209D01*
X1153279Y1322575D01*
X1146167Y1329687D01*
X1138801Y1333497D01*
X1127879Y1337053D01*
X1109845Y1337053D01*
X1098923Y1333497D01*
X1091557Y1329687D01*
X1084191Y1322575D01*
X1080635Y1315209D01*
X1080635Y1300731D01*
X1084191Y1293365D01*
X1091557Y1286253D01*
X1098923Y1282443D01*
X1109845Y1282443D01*
X1109845Y1300731D02*
G01*
X1109845Y1282443D01*
X1157089Y1258567D02*
G01*
X1080635Y1258567D01*
X1157089Y1258567D02*
G01*
X1080635Y1207513D01*
X1157089Y1207513D02*
G01*
X1080635Y1207513D01*
X1157089Y1183637D02*
G01*
X1080635Y1183637D01*
X1157089Y1183637D02*
G01*
X1157089Y1158237D01*
X1153279Y1147315D01*
X1146167Y1139949D01*
X1138801Y1136393D01*
X1127879Y1132583D01*
X1109845Y1132583D01*
X1098923Y1136393D01*
X1091557Y1139949D01*
X1084191Y1147315D01*
X1080635Y1158237D01*
X1080635Y1183637D01*
X1138801Y1028443D02*
G01*
X1146167Y1032253D01*
X1153279Y1039365D01*
X1157089Y1046731D01*
X1157089Y1061209D01*
X1153279Y1068575D01*
X1146167Y1075687D01*
X1138801Y1079497D01*
X1127879Y1083053D01*
X1109845Y1083053D01*
X1098923Y1079497D01*
X1091557Y1075687D01*
X1084191Y1068575D01*
X1080635Y1061209D01*
X1080635Y1046731D01*
X1084191Y1039365D01*
X1091557Y1032253D01*
X1098923Y1028443D01*
X1109845Y1028443D01*
X1109845Y1046731D02*
G01*
X1109845Y1028443D01*
X1138801Y1000757D02*
G01*
X1142611Y1000757D01*
X1149723Y997201D01*
X1153279Y993645D01*
X1157089Y986279D01*
X1157089Y971801D01*
X1153279Y964435D01*
X1149723Y960879D01*
X1142611Y957323D01*
X1135245Y957323D01*
X1127879Y960879D01*
X1116957Y968245D01*
X1080635Y1004567D01*
X1080635Y953513D01*
X1157089Y922271D02*
G01*
X1157089Y882393D01*
X1127879Y904237D01*
X1127879Y893315D01*
X1124323Y885949D01*
X1120767Y882393D01*
X1109845Y878583D01*
X1102479Y878583D01*
X1091557Y882393D01*
X1084191Y889505D01*
X1080635Y900427D01*
X1080635Y911349D01*
X1084191Y922271D01*
X1088001Y926081D01*
X1095113Y929637D01*
X1138801Y774443D02*
G01*
X1146167Y778253D01*
X1153279Y785365D01*
X1157089Y792731D01*
X1157089Y807209D01*
X1153279Y814575D01*
X1146167Y821687D01*
X1138801Y825497D01*
X1127879Y829053D01*
X1109845Y829053D01*
X1098923Y825497D01*
X1091557Y821687D01*
X1084191Y814575D01*
X1080635Y807209D01*
X1080635Y792731D01*
X1084191Y785365D01*
X1091557Y778253D01*
X1098923Y774443D01*
X1109845Y774443D01*
X1109845Y792731D02*
G01*
X1109845Y774443D01*
X1138801Y746757D02*
G01*
X1142611Y746757D01*
X1149723Y743201D01*
X1153279Y739645D01*
X1157089Y732279D01*
X1157089Y717801D01*
X1153279Y710435D01*
X1149723Y706879D01*
X1142611Y703323D01*
X1135245Y703323D01*
X1127879Y706879D01*
X1116957Y714245D01*
X1080635Y750567D01*
X1080635Y699513D01*
X1138801Y672081D02*
G01*
X1142611Y672081D01*
X1149723Y668271D01*
X1153279Y664715D01*
X1157089Y657349D01*
X1157089Y642871D01*
X1153279Y635505D01*
X1149723Y631949D01*
X1142611Y628393D01*
X1135245Y628393D01*
X1127879Y631949D01*
X1116957Y639315D01*
X1080635Y675637D01*
X1080635Y624583D01*
X1157089Y536953D02*
G01*
X1080635Y536953D01*
X1157089Y562353D02*
G01*
X1157089Y511553D01*
X1157089Y487423D02*
G01*
X1080635Y436623D01*
X1157089Y436623D02*
G01*
X1080635Y487423D01*
X1157089Y412493D02*
G01*
X1080635Y412493D01*
X1157089Y412493D02*
G01*
X1157089Y387093D01*
X1153279Y376171D01*
X1146167Y368805D01*
X1138801Y365249D01*
X1127879Y361693D01*
X1109845Y361693D01*
X1098923Y365249D01*
X1091557Y368805D01*
X1084191Y376171D01*
X1080635Y387093D01*
X1080635Y412493D01*
X1157089Y295653D02*
G01*
X1080635Y295653D01*
X1157089Y295653D02*
G01*
X1157089Y262887D01*
X1153279Y251965D01*
X1149723Y248409D01*
X1142611Y244853D01*
X1135245Y244853D01*
X1127879Y248409D01*
X1124323Y251965D01*
X1120767Y262887D01*
X1120767Y295653D01*
X1120767Y270253D02*
G01*
X1080635Y244853D01*
X1157089Y220723D02*
G01*
X1080635Y169923D01*
X1157089Y169923D02*
G01*
X1080635Y220723D01*
X1157089Y145793D02*
G01*
X1080635Y145793D01*
X1157089Y145793D02*
G01*
X1157089Y120393D01*
X1153279Y109471D01*
X1146167Y102105D01*
X1138801Y98549D01*
X1127879Y94993D01*
X1109845Y94993D01*
X1098923Y98549D01*
X1091557Y102105D01*
X1084191Y109471D01*
X1080635Y120393D01*
X1080635Y145793D01*
X1138801Y-12956D02*
G01*
X1146167Y-9146D01*
X1153279Y-2034D01*
X1157089Y5331D01*
X1157089Y19809D01*
X1153279Y27175D01*
X1146167Y34287D01*
X1138801Y38097D01*
X1127879Y41653D01*
X1109845Y41653D01*
X1098923Y38097D01*
X1091557Y34287D01*
X1084191Y27175D01*
X1080635Y19809D01*
X1080635Y5331D01*
X1084191Y-2034D01*
X1091557Y-9146D01*
X1098923Y-12956D01*
X1109845Y-12956D01*
X1109845Y5331D02*
G01*
X1109845Y-12956D01*
X1138801Y-40642D02*
G01*
X1142611Y-40642D01*
X1149723Y-44198D01*
X1153279Y-47754D01*
X1157089Y-55120D01*
X1157089Y-69598D01*
X1153279Y-76964D01*
X1149723Y-80520D01*
X1142611Y-84076D01*
X1135245Y-84076D01*
X1127879Y-80520D01*
X1116957Y-73154D01*
X1080635Y-36832D01*
X1080635Y-87886D01*
X1142611Y-111762D02*
G01*
X1146167Y-119128D01*
X1157089Y-130050D01*
X1080635Y-130050D01*
X1131435Y-254256D02*
G01*
X1138801Y-250446D01*
X1145913Y-243334D01*
X1149723Y-235968D01*
X1149723Y-221490D01*
X1145913Y-214124D01*
X1138801Y-207012D01*
X1131435Y-203202D01*
X1120513Y-199646D01*
X1102479Y-199646D01*
X1091557Y-203202D01*
X1084191Y-207012D01*
X1076825Y-214124D01*
X1073269Y-221490D01*
X1073269Y-235968D01*
X1076825Y-243334D01*
X1084191Y-250446D01*
X1091557Y-254256D01*
X1102479Y-254256D01*
X1102479Y-235968D02*
G01*
X1102479Y-254256D01*
X1149723Y-278132D02*
G01*
X1073269Y-278132D01*
X1149723Y-278132D02*
G01*
X1073269Y-329186D01*
X1149723Y-329186D02*
G01*
X1073269Y-329186D01*
X1149723Y-353062D02*
G01*
X1073269Y-353062D01*
X1149723Y-353062D02*
G01*
X1149723Y-378462D01*
X1145913Y-389384D01*
X1138801Y-396750D01*
X1131435Y-400306D01*
X1120513Y-404116D01*
X1102479Y-404116D01*
X1091557Y-400306D01*
X1084191Y-396750D01*
X1076825Y-389384D01*
X1073269Y-378462D01*
X1073269Y-353062D01*
X1131435Y-533656D02*
G01*
X1138801Y-529846D01*
X1145913Y-522734D01*
X1149723Y-515368D01*
X1149723Y-500890D01*
X1145913Y-493524D01*
X1138801Y-486412D01*
X1131435Y-482602D01*
X1120513Y-479046D01*
X1102479Y-479046D01*
X1091557Y-482602D01*
X1084191Y-486412D01*
X1076825Y-493524D01*
X1073269Y-500890D01*
X1073269Y-515368D01*
X1076825Y-522734D01*
X1084191Y-529846D01*
X1091557Y-533656D01*
X1102479Y-533656D01*
X1102479Y-515368D02*
G01*
X1102479Y-533656D01*
X1135245Y-557532D02*
G01*
X1138801Y-564898D01*
X1149723Y-575820D01*
X1073269Y-575820D01*
X1124323Y-646940D02*
G01*
X1113401Y-643384D01*
X1106035Y-636018D01*
X1102479Y-625350D01*
X1102479Y-621540D01*
X1106035Y-610618D01*
X1113401Y-603506D01*
X1124323Y-599696D01*
X1127879Y-599696D01*
X1138801Y-603506D01*
X1145913Y-610618D01*
X1149723Y-621540D01*
X1149723Y-625350D01*
X1145913Y-636018D01*
X1138801Y-643384D01*
X1124323Y-646940D01*
X1106035Y-646940D01*
X1087747Y-643384D01*
X1076825Y-636018D01*
X1073269Y-625350D01*
X1073269Y-617984D01*
X1076825Y-607062D01*
X1084191Y-603506D01*
X1131435Y-787656D02*
G01*
X1138801Y-783846D01*
X1145913Y-776734D01*
X1149723Y-769368D01*
X1149723Y-754890D01*
X1145913Y-747524D01*
X1138801Y-740412D01*
X1131435Y-736602D01*
X1120513Y-733046D01*
X1102479Y-733046D01*
X1091557Y-736602D01*
X1084191Y-740412D01*
X1076825Y-747524D01*
X1073269Y-754890D01*
X1073269Y-769368D01*
X1076825Y-776734D01*
X1084191Y-783846D01*
X1091557Y-787656D01*
X1102479Y-787656D01*
X1102479Y-769368D02*
G01*
X1102479Y-787656D01*
X1135245Y-811532D02*
G01*
X1138801Y-818898D01*
X1149723Y-829820D01*
X1073269Y-829820D01*
X1149723Y-871984D02*
G01*
X1145913Y-861062D01*
X1138801Y-857506D01*
X1131435Y-857506D01*
X1124323Y-861062D01*
X1120513Y-868428D01*
X1116957Y-882906D01*
X1113401Y-893828D01*
X1106035Y-900940D01*
X1098669Y-904750D01*
X1087747Y-904750D01*
X1080635Y-900940D01*
X1076825Y-897384D01*
X1073269Y-886462D01*
X1073269Y-871984D01*
X1076825Y-861062D01*
X1080635Y-857506D01*
X1087747Y-853696D01*
X1098669Y-853696D01*
X1106035Y-857506D01*
X1113401Y-864618D01*
X1116957Y-875540D01*
X1120513Y-890018D01*
X1124323Y-897384D01*
X1131435Y-900940D01*
X1138801Y-900940D01*
X1145913Y-897384D01*
X1149723Y-886462D01*
X1149723Y-871984D01*
X1131435Y-1041656D02*
G01*
X1138801Y-1037846D01*
X1145913Y-1030734D01*
X1149723Y-1023368D01*
X1149723Y-1008890D01*
X1145913Y-1001524D01*
X1138801Y-994412D01*
X1131435Y-990602D01*
X1120513Y-987046D01*
X1102479Y-987046D01*
X1091557Y-990602D01*
X1084191Y-994412D01*
X1076825Y-1001524D01*
X1073269Y-1008890D01*
X1073269Y-1023368D01*
X1076825Y-1030734D01*
X1084191Y-1037846D01*
X1091557Y-1041656D01*
X1102479Y-1041656D01*
X1102479Y-1023368D02*
G01*
X1102479Y-1041656D01*
X1149723Y-1109220D02*
G01*
X1149723Y-1072898D01*
X1116957Y-1069342D01*
X1120513Y-1072898D01*
X1124323Y-1083820D01*
X1124323Y-1094742D01*
X1120513Y-1105664D01*
X1113401Y-1112776D01*
X1102479Y-1116586D01*
X1095113Y-1116586D01*
X1084191Y-1112776D01*
X1076825Y-1105664D01*
X1073269Y-1094742D01*
X1073269Y-1083820D01*
X1076825Y-1072898D01*
X1080635Y-1069342D01*
X1087747Y-1065532D01*
X1131435Y-1282956D02*
G01*
X1138801Y-1279146D01*
X1145913Y-1272034D01*
X1149723Y-1264668D01*
X1149723Y-1250190D01*
X1145913Y-1242824D01*
X1138801Y-1235712D01*
X1131435Y-1231902D01*
X1120513Y-1228346D01*
X1102479Y-1228346D01*
X1091557Y-1231902D01*
X1084191Y-1235712D01*
X1076825Y-1242824D01*
X1073269Y-1250190D01*
X1073269Y-1264668D01*
X1076825Y-1272034D01*
X1084191Y-1279146D01*
X1091557Y-1282956D01*
X1102479Y-1282956D01*
X1102479Y-1264668D02*
G01*
X1102479Y-1282956D01*
X1135245Y-1306832D02*
G01*
X1138801Y-1314198D01*
X1149723Y-1325120D01*
X1073269Y-1325120D01*
X1149723Y-1400050D02*
G01*
X1073269Y-1363728D01*
X1149723Y-1348996D02*
G01*
X1149723Y-1400050D01*
X1131435Y-1549656D02*
G01*
X1138801Y-1545846D01*
X1145913Y-1538734D01*
X1149723Y-1531368D01*
X1149723Y-1516890D01*
X1145913Y-1509524D01*
X1138801Y-1502412D01*
X1131435Y-1498602D01*
X1120513Y-1495046D01*
X1102479Y-1495046D01*
X1091557Y-1498602D01*
X1084191Y-1502412D01*
X1076825Y-1509524D01*
X1073269Y-1516890D01*
X1073269Y-1531368D01*
X1076825Y-1538734D01*
X1084191Y-1545846D01*
X1091557Y-1549656D01*
X1102479Y-1549656D01*
X1102479Y-1531368D02*
G01*
X1102479Y-1549656D01*
X1135245Y-1573532D02*
G01*
X1138801Y-1580898D01*
X1149723Y-1591820D01*
X1073269Y-1591820D01*
X1138801Y-1659384D02*
G01*
X1145913Y-1655828D01*
X1149723Y-1644906D01*
X1149723Y-1637540D01*
X1145913Y-1626618D01*
X1135245Y-1619506D01*
X1116957Y-1615696D01*
X1098669Y-1615696D01*
X1084191Y-1619506D01*
X1076825Y-1626618D01*
X1073269Y-1637540D01*
X1073269Y-1641350D01*
X1076825Y-1652018D01*
X1084191Y-1659384D01*
X1095113Y-1662940D01*
X1098669Y-1662940D01*
X1109591Y-1659384D01*
X1116957Y-1652018D01*
X1120513Y-1641350D01*
X1120513Y-1637540D01*
X1116957Y-1626618D01*
X1109591Y-1619506D01*
X1098669Y-1615696D01*
X1131435Y-1829056D02*
G01*
X1138801Y-1825246D01*
X1145913Y-1818134D01*
X1149723Y-1810768D01*
X1149723Y-1796290D01*
X1145913Y-1788924D01*
X1138801Y-1781812D01*
X1131435Y-1778002D01*
X1120513Y-1774446D01*
X1102479Y-1774446D01*
X1091557Y-1778002D01*
X1084191Y-1781812D01*
X1076825Y-1788924D01*
X1073269Y-1796290D01*
X1073269Y-1810768D01*
X1076825Y-1818134D01*
X1084191Y-1825246D01*
X1091557Y-1829056D01*
X1102479Y-1829056D01*
X1102479Y-1810768D02*
G01*
X1102479Y-1829056D01*
X1149723Y-1889254D02*
G01*
X1098669Y-1852932D01*
X1098669Y-1907542D01*
X1149723Y-1889254D02*
G01*
X1073269Y-1889254D01*
X1126101Y-2083056D02*
G01*
X1133467Y-2079246D01*
X1140579Y-2072134D01*
X1144389Y-2064768D01*
X1144389Y-2050290D01*
X1140579Y-2042924D01*
X1133467Y-2035812D01*
X1126101Y-2032002D01*
X1115179Y-2028446D01*
X1097145Y-2028446D01*
X1086223Y-2032002D01*
X1078857Y-2035812D01*
X1071491Y-2042924D01*
X1067935Y-2050290D01*
X1067935Y-2064768D01*
X1071491Y-2072134D01*
X1078857Y-2079246D01*
X1086223Y-2083056D01*
X1097145Y-2083056D01*
X1097145Y-2064768D02*
G01*
X1097145Y-2083056D01*
X1144389Y-2128776D02*
G01*
X1140579Y-2117854D01*
X1129911Y-2110742D01*
X1111623Y-2106932D01*
X1100701Y-2106932D01*
X1082413Y-2110742D01*
X1071491Y-2117854D01*
X1067935Y-2128776D01*
X1067935Y-2136142D01*
X1071491Y-2147064D01*
X1082413Y-2154176D01*
X1100701Y-2157986D01*
X1111623Y-2157986D01*
X1129911Y-2154176D01*
X1140579Y-2147064D01*
X1144389Y-2136142D01*
X1144389Y-2128776D01*
X1126101Y-2337056D02*
G01*
X1133467Y-2333246D01*
X1140579Y-2326134D01*
X1144389Y-2318768D01*
X1144389Y-2304290D01*
X1140579Y-2296924D01*
X1133467Y-2289812D01*
X1126101Y-2286002D01*
X1115179Y-2282446D01*
X1097145Y-2282446D01*
X1086223Y-2286002D01*
X1078857Y-2289812D01*
X1071491Y-2296924D01*
X1067935Y-2304290D01*
X1067935Y-2318768D01*
X1071491Y-2326134D01*
X1078857Y-2333246D01*
X1086223Y-2337056D01*
X1097145Y-2337056D01*
X1097145Y-2318768D02*
G01*
X1097145Y-2337056D01*
X1126101Y-2364742D02*
G01*
X1129911Y-2364742D01*
X1137023Y-2368298D01*
X1140579Y-2371854D01*
X1144389Y-2379220D01*
X1144389Y-2393698D01*
X1140579Y-2401064D01*
X1137023Y-2404620D01*
X1129911Y-2408176D01*
X1122545Y-2408176D01*
X1115179Y-2404620D01*
X1104257Y-2397254D01*
X1067935Y-2360932D01*
X1067935Y-2411986D01*
X1126101Y-2565656D02*
G01*
X1133467Y-2561846D01*
X1140579Y-2554734D01*
X1144389Y-2547368D01*
X1144389Y-2532890D01*
X1140579Y-2525524D01*
X1133467Y-2518412D01*
X1126101Y-2514602D01*
X1115179Y-2511046D01*
X1097145Y-2511046D01*
X1086223Y-2514602D01*
X1078857Y-2518412D01*
X1071491Y-2525524D01*
X1067935Y-2532890D01*
X1067935Y-2547368D01*
X1071491Y-2554734D01*
X1078857Y-2561846D01*
X1086223Y-2565656D01*
X1097145Y-2565656D01*
X1097145Y-2547368D02*
G01*
X1097145Y-2565656D01*
X1129911Y-2589532D02*
G01*
X1133467Y-2596898D01*
X1144389Y-2607820D01*
X1067935Y-2607820D01*
X1144389Y-2675384D02*
G01*
X1144389Y-2639062D01*
X1111623Y-2635506D01*
X1115179Y-2639062D01*
X1118989Y-2649984D01*
X1118989Y-2660906D01*
X1115179Y-2671828D01*
X1108067Y-2678940D01*
X1097145Y-2682750D01*
X1089779Y-2682750D01*
X1078857Y-2678940D01*
X1071491Y-2671828D01*
X1067935Y-2660906D01*
X1067935Y-2649984D01*
X1071491Y-2639062D01*
X1075301Y-2635506D01*
X1082413Y-2631696D01*
X1133467Y-2803146D02*
G01*
X1140579Y-2796034D01*
X1144389Y-2785112D01*
X1144389Y-2770634D01*
X1140579Y-2759712D01*
X1133467Y-2752346D01*
X1126101Y-2752346D01*
X1118989Y-2755902D01*
X1115179Y-2759712D01*
X1111623Y-2766824D01*
X1104257Y-2788668D01*
X1100701Y-2796034D01*
X1097145Y-2799590D01*
X1089779Y-2803146D01*
X1078857Y-2803146D01*
X1071491Y-2796034D01*
X1067935Y-2785112D01*
X1067935Y-2770634D01*
X1071491Y-2759712D01*
X1078857Y-2752346D01*
X1144389Y-2827276D02*
G01*
X1067935Y-2827276D01*
X1144389Y-2827276D02*
G01*
X1144389Y-2852676D01*
X1140579Y-2863598D01*
X1133467Y-2870964D01*
X1126101Y-2874520D01*
X1115179Y-2878076D01*
X1097145Y-2878076D01*
X1086223Y-2874520D01*
X1078857Y-2870964D01*
X1071491Y-2863598D01*
X1067935Y-2852676D01*
X1067935Y-2827276D01*
X1129911Y-2902206D02*
G01*
X1133467Y-2909318D01*
X1144389Y-2920240D01*
X1067935Y-2920240D01*
X1133467Y-3044446D02*
G01*
X1140579Y-3037334D01*
X1144389Y-3026412D01*
X1144389Y-3011934D01*
X1140579Y-3001012D01*
X1133467Y-2993646D01*
X1126101Y-2993646D01*
X1118989Y-2997202D01*
X1115179Y-3001012D01*
X1111623Y-3008124D01*
X1104257Y-3029968D01*
X1100701Y-3037334D01*
X1097145Y-3040890D01*
X1089779Y-3044446D01*
X1078857Y-3044446D01*
X1071491Y-3037334D01*
X1067935Y-3026412D01*
X1067935Y-3011934D01*
X1071491Y-3001012D01*
X1078857Y-2993646D01*
X1144389Y-3068576D02*
G01*
X1067935Y-3068576D01*
X1144389Y-3068576D02*
G01*
X1144389Y-3093976D01*
X1140579Y-3104898D01*
X1133467Y-3112264D01*
X1126101Y-3115820D01*
X1115179Y-3119376D01*
X1097145Y-3119376D01*
X1086223Y-3115820D01*
X1078857Y-3112264D01*
X1071491Y-3104898D01*
X1067935Y-3093976D01*
X1067935Y-3068576D01*
X1144389Y-3165350D02*
G01*
X1140579Y-3154428D01*
X1129911Y-3147062D01*
X1111623Y-3143506D01*
X1100701Y-3143506D01*
X1082413Y-3147062D01*
X1071491Y-3154428D01*
X1067935Y-3165350D01*
X1067935Y-3172462D01*
X1071491Y-3183384D01*
X1082413Y-3190750D01*
X1100701Y-3194306D01*
X1111623Y-3194306D01*
X1129911Y-3190750D01*
X1140579Y-3183384D01*
X1144389Y-3172462D01*
X1144389Y-3165350D01*
X1118727Y-3289561D02*
G01*
X1126093Y-3285751D01*
X1133459Y-3278639D01*
X1137015Y-3271273D01*
X1137015Y-3256795D01*
X1133459Y-3249429D01*
X1126093Y-3242317D01*
X1118727Y-3238507D01*
X1107805Y-3234951D01*
X1089771Y-3234951D01*
X1078849Y-3238507D01*
X1071483Y-3242317D01*
X1064117Y-3249429D01*
X1060561Y-3256795D01*
X1060561Y-3271273D01*
X1064117Y-3278639D01*
X1071483Y-3285751D01*
X1078849Y-3289561D01*
X1137015Y-3313437D02*
G01*
X1060561Y-3313437D01*
X1060561Y-3313437D02*
G01*
X1060561Y-3357125D01*
X1137015Y-3381001D02*
G01*
X1060561Y-3381001D01*
X1137015Y-3432055D02*
G01*
X1085961Y-3381001D01*
X1104249Y-3399289D02*
G01*
X1060561Y-3432055D01*
X-1116464Y1110995D02*
G01*
X-1116464Y1150873D01*
X-1087254Y1129029D01*
X-1087254Y1139952D01*
X-1083698Y1147318D01*
X-1080142Y1150873D01*
X-1069220Y1154429D01*
X-1061854Y1154429D01*
X-1050932Y1150873D01*
X-1043566Y1143507D01*
X-1040010Y1132839D01*
X-1040010Y1121918D01*
X-1043566Y1110995D01*
X-1047376Y1107186D01*
X-1054488Y1103629D01*
X-1116464Y1178560D02*
G01*
X-1040010Y1207515D01*
X-1116464Y1236726D02*
G01*
X-1040010Y1207515D01*
X-1116464Y1267968D02*
G01*
X-1116464Y1308100D01*
X-1087254Y1286255D01*
X-1087254Y1297178D01*
X-1083698Y1304289D01*
X-1080142Y1308100D01*
X-1069220Y1311655D01*
X-1061854Y1311655D01*
X-1050932Y1308100D01*
X-1043566Y1300734D01*
X-1040010Y1289812D01*
X-1040010Y1278889D01*
X-1043566Y1267968D01*
X-1047376Y1264412D01*
X-1054488Y1260602D01*
X-1122052Y905253D02*
G01*
X-1045598Y905253D01*
X-1122052Y905253D02*
G01*
X-1122052Y952497D01*
X-1085730Y905253D02*
G01*
X-1085730Y934463D01*
X-1045598Y905253D02*
G01*
X-1045598Y952497D01*
X-1122052Y976627D02*
G01*
X-1045598Y976627D01*
X-1122052Y976627D02*
G01*
X-1045598Y1027427D01*
X-1122052Y1027427D02*
G01*
X-1045598Y1027427D01*
X-1098430Y689353D02*
G01*
X-1105542Y682241D01*
X-1109352Y671319D01*
X-1109352Y656841D01*
X-1105542Y645919D01*
X-1098430Y638553D01*
X-1091064Y638553D01*
X-1083952Y642109D01*
X-1080142Y645919D01*
X-1076586Y653031D01*
X-1069220Y674875D01*
X-1065664Y682241D01*
X-1062108Y685797D01*
X-1054742Y689353D01*
X-1043820Y689353D01*
X-1036454Y682241D01*
X-1032898Y671319D01*
X-1032898Y656841D01*
X-1036454Y645919D01*
X-1043820Y638553D01*
X-1109352Y713483D02*
G01*
X-1032898Y713483D01*
X-1109352Y713483D02*
G01*
X-1109352Y746249D01*
X-1105542Y757171D01*
X-1101986Y760727D01*
X-1094874Y764283D01*
X-1083952Y764283D01*
X-1076586Y760727D01*
X-1073030Y757171D01*
X-1069220Y746249D01*
X-1069220Y713483D01*
X-1105542Y436623D02*
G01*
X-1112654Y429511D01*
X-1116464Y418589D01*
X-1116464Y404111D01*
X-1112654Y393189D01*
X-1105542Y385823D01*
X-1098176Y385823D01*
X-1091064Y389379D01*
X-1087254Y393189D01*
X-1083698Y400301D01*
X-1076332Y422145D01*
X-1072776Y429511D01*
X-1069220Y433067D01*
X-1061854Y436623D01*
X-1050932Y436623D01*
X-1043566Y429511D01*
X-1040010Y418589D01*
X-1040010Y404111D01*
X-1043566Y393189D01*
X-1050932Y385823D01*
X-1116464Y460753D02*
G01*
X-1040010Y460753D01*
X-1116464Y460753D02*
G01*
X-1040010Y511553D01*
X-1116464Y511553D02*
G01*
X-1040010Y511553D01*
X-1091064Y147063D02*
G01*
X-1098430Y143253D01*
X-1105542Y136141D01*
X-1109352Y128775D01*
X-1109352Y114297D01*
X-1105542Y106931D01*
X-1098430Y99819D01*
X-1091064Y96009D01*
X-1080142Y92453D01*
X-1062108Y92453D01*
X-1051186Y96009D01*
X-1043820Y99819D01*
X-1036454Y106931D01*
X-1032898Y114297D01*
X-1032898Y128775D01*
X-1036454Y136141D01*
X-1043820Y143253D01*
X-1051186Y147063D01*
X-1062108Y147063D01*
X-1062108Y128775D02*
G01*
X-1062108Y147063D01*
X-1109352Y178305D02*
G01*
X-1109352Y218183D01*
X-1080142Y196339D01*
X-1080142Y207261D01*
X-1076586Y214627D01*
X-1073030Y218183D01*
X-1062108Y221993D01*
X-1054742Y221993D01*
X-1043820Y218183D01*
X-1036454Y211071D01*
X-1032898Y200149D01*
X-1032898Y189227D01*
X-1036454Y178305D01*
X-1040264Y174749D01*
X-1047376Y170939D01*
X-1109352Y282191D02*
G01*
X-1058298Y245869D01*
X-1058298Y300479D01*
X-1109352Y282191D02*
G01*
X-1032898Y282191D01*
X-1091064Y-106936D02*
G01*
X-1098430Y-110746D01*
X-1105542Y-117858D01*
X-1109352Y-125224D01*
X-1109352Y-139702D01*
X-1105542Y-147068D01*
X-1098430Y-154180D01*
X-1091064Y-157990D01*
X-1080142Y-161546D01*
X-1062108Y-161546D01*
X-1051186Y-157990D01*
X-1043820Y-154180D01*
X-1036454Y-147068D01*
X-1032898Y-139702D01*
X-1032898Y-125224D01*
X-1036454Y-117858D01*
X-1043820Y-110746D01*
X-1051186Y-106936D01*
X-1062108Y-106936D01*
X-1062108Y-125224D02*
G01*
X-1062108Y-106936D01*
X-1109352Y-75694D02*
G01*
X-1109352Y-35816D01*
X-1080142Y-57660D01*
X-1080142Y-46738D01*
X-1076586Y-39372D01*
X-1073030Y-35816D01*
X-1062108Y-32006D01*
X-1054742Y-32006D01*
X-1043820Y-35816D01*
X-1036454Y-42928D01*
X-1032898Y-53850D01*
X-1032898Y-64772D01*
X-1036454Y-75694D01*
X-1040264Y-79250D01*
X-1047376Y-83060D01*
X-1109352Y35557D02*
G01*
X-1109352Y-764D01*
X-1076586Y-4574D01*
X-1080142Y-764D01*
X-1083952Y10157D01*
X-1083952Y21079D01*
X-1080142Y32001D01*
X-1073030Y39113D01*
X-1062108Y42923D01*
X-1054742Y42923D01*
X-1043820Y39113D01*
X-1036454Y32001D01*
X-1032898Y21079D01*
X-1032898Y10157D01*
X-1036454Y-764D01*
X-1040264Y-4574D01*
X-1047376Y-8130D01*
X-1091064Y-348236D02*
G01*
X-1098430Y-352046D01*
X-1105542Y-359158D01*
X-1109352Y-366524D01*
X-1109352Y-381002D01*
X-1105542Y-388368D01*
X-1098430Y-395480D01*
X-1091064Y-399290D01*
X-1080142Y-402846D01*
X-1062108Y-402846D01*
X-1051186Y-399290D01*
X-1043820Y-395480D01*
X-1036454Y-388368D01*
X-1032898Y-381002D01*
X-1032898Y-366524D01*
X-1036454Y-359158D01*
X-1043820Y-352046D01*
X-1051186Y-348236D01*
X-1062108Y-348236D01*
X-1062108Y-366524D02*
G01*
X-1062108Y-348236D01*
X-1109352Y-316994D02*
G01*
X-1109352Y-277116D01*
X-1080142Y-298960D01*
X-1080142Y-288038D01*
X-1076586Y-280672D01*
X-1073030Y-277116D01*
X-1062108Y-273306D01*
X-1054742Y-273306D01*
X-1043820Y-277116D01*
X-1036454Y-284228D01*
X-1032898Y-295150D01*
X-1032898Y-306072D01*
X-1036454Y-316994D01*
X-1040264Y-320550D01*
X-1047376Y-324360D01*
X-1091064Y-245874D02*
G01*
X-1094874Y-245874D01*
X-1101986Y-242064D01*
X-1105542Y-238508D01*
X-1109352Y-231142D01*
X-1109352Y-216664D01*
X-1105542Y-209298D01*
X-1101986Y-205742D01*
X-1094874Y-202186D01*
X-1087508Y-202186D01*
X-1080142Y-205742D01*
X-1069220Y-213108D01*
X-1032898Y-249430D01*
X-1032898Y-198376D01*
X-1091064Y-614936D02*
G01*
X-1098430Y-618746D01*
X-1105542Y-625858D01*
X-1109352Y-633224D01*
X-1109352Y-647702D01*
X-1105542Y-655068D01*
X-1098430Y-662180D01*
X-1091064Y-665990D01*
X-1080142Y-669546D01*
X-1062108Y-669546D01*
X-1051186Y-665990D01*
X-1043820Y-662180D01*
X-1036454Y-655068D01*
X-1032898Y-647702D01*
X-1032898Y-633224D01*
X-1036454Y-625858D01*
X-1043820Y-618746D01*
X-1051186Y-614936D01*
X-1062108Y-614936D01*
X-1062108Y-633224D02*
G01*
X-1062108Y-614936D01*
X-1109352Y-583694D02*
G01*
X-1109352Y-543816D01*
X-1080142Y-565660D01*
X-1080142Y-554738D01*
X-1076586Y-547372D01*
X-1073030Y-543816D01*
X-1062108Y-540006D01*
X-1054742Y-540006D01*
X-1043820Y-543816D01*
X-1036454Y-550928D01*
X-1032898Y-561850D01*
X-1032898Y-572772D01*
X-1036454Y-583694D01*
X-1040264Y-587250D01*
X-1047376Y-591060D01*
X-1109352Y-508764D02*
G01*
X-1109352Y-468886D01*
X-1080142Y-490730D01*
X-1080142Y-479808D01*
X-1076586Y-472442D01*
X-1073030Y-468886D01*
X-1062108Y-465076D01*
X-1054742Y-465076D01*
X-1043820Y-468886D01*
X-1036454Y-475998D01*
X-1032898Y-486920D01*
X-1032898Y-497842D01*
X-1036454Y-508764D01*
X-1040264Y-512574D01*
X-1047376Y-516130D01*
X-1091064Y-868936D02*
G01*
X-1098430Y-872746D01*
X-1105542Y-879858D01*
X-1109352Y-887224D01*
X-1109352Y-901702D01*
X-1105542Y-909068D01*
X-1098430Y-916180D01*
X-1091064Y-919990D01*
X-1080142Y-923546D01*
X-1062108Y-923546D01*
X-1051186Y-919990D01*
X-1043820Y-916180D01*
X-1036454Y-909068D01*
X-1032898Y-901702D01*
X-1032898Y-887224D01*
X-1036454Y-879858D01*
X-1043820Y-872746D01*
X-1051186Y-868936D01*
X-1062108Y-868936D01*
X-1062108Y-887224D02*
G01*
X-1062108Y-868936D01*
X-1091064Y-841250D02*
G01*
X-1094874Y-841250D01*
X-1101986Y-837694D01*
X-1105542Y-834138D01*
X-1109352Y-826772D01*
X-1109352Y-812294D01*
X-1105542Y-804928D01*
X-1101986Y-801372D01*
X-1094874Y-797816D01*
X-1087508Y-797816D01*
X-1080142Y-801372D01*
X-1069220Y-808738D01*
X-1032898Y-845060D01*
X-1032898Y-794006D01*
X-1109352Y-726442D02*
G01*
X-1109352Y-762764D01*
X-1076586Y-766574D01*
X-1080142Y-762764D01*
X-1083952Y-751842D01*
X-1083952Y-740920D01*
X-1080142Y-729998D01*
X-1073030Y-722886D01*
X-1062108Y-719076D01*
X-1054742Y-719076D01*
X-1043820Y-722886D01*
X-1036454Y-729998D01*
X-1032898Y-740920D01*
X-1032898Y-751842D01*
X-1036454Y-762764D01*
X-1040264Y-766574D01*
X-1047376Y-770130D01*
X-1091064Y-1122936D02*
G01*
X-1098430Y-1126746D01*
X-1105542Y-1133858D01*
X-1109352Y-1141224D01*
X-1109352Y-1155702D01*
X-1105542Y-1163068D01*
X-1098430Y-1170180D01*
X-1091064Y-1173990D01*
X-1080142Y-1177546D01*
X-1062108Y-1177546D01*
X-1051186Y-1173990D01*
X-1043820Y-1170180D01*
X-1036454Y-1163068D01*
X-1032898Y-1155702D01*
X-1032898Y-1141224D01*
X-1036454Y-1133858D01*
X-1043820Y-1126746D01*
X-1051186Y-1122936D01*
X-1062108Y-1122936D01*
X-1062108Y-1141224D02*
G01*
X-1062108Y-1122936D01*
X-1091064Y-1095250D02*
G01*
X-1094874Y-1095250D01*
X-1101986Y-1091694D01*
X-1105542Y-1088138D01*
X-1109352Y-1080772D01*
X-1109352Y-1066294D01*
X-1105542Y-1058928D01*
X-1101986Y-1055372D01*
X-1094874Y-1051816D01*
X-1087508Y-1051816D01*
X-1080142Y-1055372D01*
X-1069220Y-1062738D01*
X-1032898Y-1099060D01*
X-1032898Y-1048006D01*
X-1098430Y-980442D02*
G01*
X-1105542Y-983998D01*
X-1109352Y-994920D01*
X-1109352Y-1002286D01*
X-1105542Y-1013208D01*
X-1094874Y-1020574D01*
X-1076586Y-1024130D01*
X-1058298Y-1024130D01*
X-1043820Y-1020574D01*
X-1036454Y-1013208D01*
X-1032898Y-1002286D01*
X-1032898Y-998730D01*
X-1036454Y-987808D01*
X-1043820Y-980442D01*
X-1054742Y-976886D01*
X-1058298Y-976886D01*
X-1069220Y-980442D01*
X-1076586Y-987808D01*
X-1080142Y-998730D01*
X-1080142Y-1002286D01*
X-1076586Y-1013208D01*
X-1069220Y-1020574D01*
X-1058298Y-1024130D01*
X-1098176Y-1365506D02*
G01*
X-1105542Y-1369316D01*
X-1112654Y-1376428D01*
X-1116464Y-1383794D01*
X-1116464Y-1398272D01*
X-1112654Y-1405638D01*
X-1105542Y-1412750D01*
X-1098176Y-1416560D01*
X-1087254Y-1420116D01*
X-1069220Y-1420116D01*
X-1058298Y-1416560D01*
X-1050932Y-1412750D01*
X-1043566Y-1405638D01*
X-1040010Y-1398272D01*
X-1040010Y-1383794D01*
X-1043566Y-1376428D01*
X-1050932Y-1369316D01*
X-1058298Y-1365506D01*
X-1069220Y-1365506D01*
X-1069220Y-1383794D02*
G01*
X-1069220Y-1365506D01*
X-1098176Y-1337820D02*
G01*
X-1101986Y-1337820D01*
X-1109098Y-1334264D01*
X-1112654Y-1330708D01*
X-1116464Y-1323342D01*
X-1116464Y-1308864D01*
X-1112654Y-1301498D01*
X-1109098Y-1297942D01*
X-1101986Y-1294386D01*
X-1094620Y-1294386D01*
X-1087254Y-1297942D01*
X-1076332Y-1305308D01*
X-1040010Y-1341630D01*
X-1040010Y-1290576D01*
X-1116464Y-1215646D02*
G01*
X-1040010Y-1252222D01*
X-1116464Y-1266700D02*
G01*
X-1116464Y-1215646D01*
X-1103764Y-1618236D02*
G01*
X-1111130Y-1622046D01*
X-1118242Y-1629158D01*
X-1122052Y-1636524D01*
X-1122052Y-1651002D01*
X-1118242Y-1658368D01*
X-1111130Y-1665480D01*
X-1103764Y-1669290D01*
X-1092842Y-1672846D01*
X-1074808Y-1672846D01*
X-1063886Y-1669290D01*
X-1056520Y-1665480D01*
X-1049154Y-1658368D01*
X-1045598Y-1651002D01*
X-1045598Y-1636524D01*
X-1049154Y-1629158D01*
X-1056520Y-1622046D01*
X-1063886Y-1618236D01*
X-1074808Y-1618236D01*
X-1074808Y-1636524D02*
G01*
X-1074808Y-1618236D01*
X-1107574Y-1594360D02*
G01*
X-1111130Y-1586994D01*
X-1122052Y-1576072D01*
X-1045598Y-1576072D01*
X-1122052Y-1515874D02*
G01*
X-1070998Y-1552196D01*
X-1070998Y-1497586D01*
X-1122052Y-1515874D02*
G01*
X-1045598Y-1515874D01*
X-1103764Y-1859536D02*
G01*
X-1111130Y-1863346D01*
X-1118242Y-1870458D01*
X-1122052Y-1877824D01*
X-1122052Y-1892302D01*
X-1118242Y-1899668D01*
X-1111130Y-1906780D01*
X-1103764Y-1910590D01*
X-1092842Y-1914146D01*
X-1074808Y-1914146D01*
X-1063886Y-1910590D01*
X-1056520Y-1906780D01*
X-1049154Y-1899668D01*
X-1045598Y-1892302D01*
X-1045598Y-1877824D01*
X-1049154Y-1870458D01*
X-1056520Y-1863346D01*
X-1063886Y-1859536D01*
X-1074808Y-1859536D01*
X-1074808Y-1877824D02*
G01*
X-1074808Y-1859536D01*
X-1107574Y-1835660D02*
G01*
X-1111130Y-1828294D01*
X-1122052Y-1817372D01*
X-1045598Y-1817372D01*
X-1103764Y-1789686D02*
G01*
X-1107574Y-1789686D01*
X-1114686Y-1786130D01*
X-1118242Y-1782574D01*
X-1122052Y-1775208D01*
X-1122052Y-1760730D01*
X-1118242Y-1753364D01*
X-1114686Y-1749808D01*
X-1107574Y-1746252D01*
X-1100208Y-1746252D01*
X-1092842Y-1749808D01*
X-1081920Y-1757174D01*
X-1045598Y-1793496D01*
X-1045598Y-1742442D01*
X-1098176Y-2127506D02*
G01*
X-1105542Y-2131316D01*
X-1112654Y-2138428D01*
X-1116464Y-2145794D01*
X-1116464Y-2160272D01*
X-1112654Y-2167638D01*
X-1105542Y-2174750D01*
X-1098176Y-2178560D01*
X-1087254Y-2182116D01*
X-1069220Y-2182116D01*
X-1058298Y-2178560D01*
X-1050932Y-2174750D01*
X-1043566Y-2167638D01*
X-1040010Y-2160272D01*
X-1040010Y-2145794D01*
X-1043566Y-2138428D01*
X-1050932Y-2131316D01*
X-1058298Y-2127506D01*
X-1069220Y-2127506D01*
X-1069220Y-2145794D02*
G01*
X-1069220Y-2127506D01*
X-1116464Y-2103630D02*
G01*
X-1040010Y-2103630D01*
X-1116464Y-2103630D02*
G01*
X-1040010Y-2052576D01*
X-1116464Y-2052576D02*
G01*
X-1040010Y-2052576D01*
X-1116464Y-2028700D02*
G01*
X-1040010Y-2028700D01*
X-1116464Y-2028700D02*
G01*
X-1116464Y-2003300D01*
X-1112654Y-1992378D01*
X-1105542Y-1985012D01*
X-1098176Y-1981456D01*
X-1087254Y-1977646D01*
X-1069220Y-1977646D01*
X-1058298Y-1981456D01*
X-1050932Y-1985012D01*
X-1043566Y-1992378D01*
X-1040010Y-2003300D01*
X-1040010Y-2028700D01*
X-1103764Y-2380236D02*
G01*
X-1111130Y-2384046D01*
X-1118242Y-2391158D01*
X-1122052Y-2398524D01*
X-1122052Y-2413002D01*
X-1118242Y-2420368D01*
X-1111130Y-2427480D01*
X-1103764Y-2431290D01*
X-1092842Y-2434846D01*
X-1074808Y-2434846D01*
X-1063886Y-2431290D01*
X-1056520Y-2427480D01*
X-1049154Y-2420368D01*
X-1045598Y-2413002D01*
X-1045598Y-2398524D01*
X-1049154Y-2391158D01*
X-1056520Y-2384046D01*
X-1063886Y-2380236D01*
X-1074808Y-2380236D01*
X-1074808Y-2398524D02*
G01*
X-1074808Y-2380236D01*
X-1107574Y-2356360D02*
G01*
X-1111130Y-2348994D01*
X-1122052Y-2338072D01*
X-1045598Y-2338072D01*
X-1122052Y-2306830D02*
G01*
X-1122052Y-2266952D01*
X-1092842Y-2288542D01*
X-1092842Y-2277874D01*
X-1089286Y-2270508D01*
X-1085730Y-2266952D01*
X-1074808Y-2263142D01*
X-1067442Y-2263142D01*
X-1056520Y-2266952D01*
X-1049154Y-2274064D01*
X-1045598Y-2284986D01*
X-1045598Y-2295908D01*
X-1049154Y-2306830D01*
X-1052964Y-2310386D01*
X-1060076Y-2314196D01*
X-1111130Y-2638046D02*
G01*
X-1118242Y-2645158D01*
X-1122052Y-2656080D01*
X-1122052Y-2670558D01*
X-1118242Y-2681480D01*
X-1111130Y-2688846D01*
X-1103764Y-2688846D01*
X-1096652Y-2685290D01*
X-1092842Y-2681480D01*
X-1089286Y-2674368D01*
X-1081920Y-2652524D01*
X-1078364Y-2645158D01*
X-1074808Y-2641602D01*
X-1067442Y-2638046D01*
X-1056520Y-2638046D01*
X-1049154Y-2645158D01*
X-1045598Y-2656080D01*
X-1045598Y-2670558D01*
X-1049154Y-2681480D01*
X-1056520Y-2688846D01*
X-1122052Y-2613916D02*
G01*
X-1045598Y-2613916D01*
X-1122052Y-2613916D02*
G01*
X-1122052Y-2588516D01*
X-1118242Y-2577594D01*
X-1111130Y-2570228D01*
X-1103764Y-2566672D01*
X-1092842Y-2563116D01*
X-1074808Y-2563116D01*
X-1063886Y-2566672D01*
X-1056520Y-2570228D01*
X-1049154Y-2577594D01*
X-1045598Y-2588516D01*
X-1045598Y-2613916D01*
X-1103764Y-2535430D02*
G01*
X-1107574Y-2535430D01*
X-1114686Y-2531874D01*
X-1118242Y-2528064D01*
X-1122052Y-2520952D01*
X-1122052Y-2506220D01*
X-1118242Y-2499108D01*
X-1114686Y-2495298D01*
X-1107574Y-2491742D01*
X-1100208Y-2491742D01*
X-1092842Y-2495298D01*
X-1081920Y-2502664D01*
X-1045598Y-2538986D01*
X-1045598Y-2488186D01*
X-1105542Y-2889504D02*
G01*
X-1112654Y-2896615D01*
X-1116464Y-2907537D01*
X-1116464Y-2922015D01*
X-1112654Y-2932937D01*
X-1105542Y-2940304D01*
X-1098176Y-2940304D01*
X-1091064Y-2936747D01*
X-1087254Y-2932937D01*
X-1083698Y-2925826D01*
X-1076332Y-2903981D01*
X-1072776Y-2896615D01*
X-1069220Y-2893060D01*
X-1061854Y-2889504D01*
X-1050932Y-2889504D01*
X-1043566Y-2896615D01*
X-1040010Y-2907537D01*
X-1040010Y-2922015D01*
X-1043566Y-2932937D01*
X-1050932Y-2940304D01*
X-1116464Y-2865373D02*
G01*
X-1040010Y-2865373D01*
X-1116464Y-2865373D02*
G01*
X-1116464Y-2839973D01*
X-1112654Y-2829052D01*
X-1105542Y-2821686D01*
X-1098176Y-2818129D01*
X-1087254Y-2814573D01*
X-1069220Y-2814573D01*
X-1058298Y-2818129D01*
X-1050932Y-2821686D01*
X-1043566Y-2829052D01*
X-1040010Y-2839973D01*
X-1040010Y-2865373D01*
X-1116464Y-2783331D02*
G01*
X-1116464Y-2743200D01*
X-1087254Y-2765044D01*
X-1087254Y-2754121D01*
X-1083698Y-2746755D01*
X-1080142Y-2743200D01*
X-1069220Y-2739644D01*
X-1061854Y-2739644D01*
X-1050932Y-2743200D01*
X-1043566Y-2750565D01*
X-1040010Y-2761487D01*
X-1040010Y-2772410D01*
X-1043566Y-2783331D01*
X-1047376Y-2786887D01*
X-1054488Y-2790444D01*
X-1098176Y-3163321D02*
G01*
X-1105542Y-3167131D01*
X-1112654Y-3174243D01*
X-1116464Y-3181609D01*
X-1116464Y-3196087D01*
X-1112654Y-3203453D01*
X-1105542Y-3210565D01*
X-1098176Y-3214375D01*
X-1087254Y-3217931D01*
X-1069220Y-3217931D01*
X-1058298Y-3214375D01*
X-1050932Y-3210565D01*
X-1043566Y-3203453D01*
X-1040010Y-3196087D01*
X-1040010Y-3181609D01*
X-1043566Y-3174243D01*
X-1050932Y-3167131D01*
X-1058298Y-3163321D01*
X-1116464Y-3139445D02*
G01*
X-1040010Y-3139445D01*
X-1116464Y-3139445D02*
G01*
X-1040010Y-3110235D01*
X-1116464Y-3081279D02*
G01*
X-1040010Y-3110235D01*
X-1116464Y-3081279D02*
G01*
X-1040010Y-3081279D01*
X-1116464Y-3057149D02*
G01*
X-1040010Y-3057149D01*
X-1116464Y-3057149D02*
G01*
X-1116464Y-3031749D01*
X-1112654Y-3020827D01*
X-1105542Y-3013461D01*
X-1098176Y-3009905D01*
X-1087254Y-3006349D01*
X-1069220Y-3006349D01*
X-1058298Y-3009905D01*
X-1050932Y-3013461D01*
X-1043566Y-3020827D01*
X-1040010Y-3031749D01*
X-1040010Y-3057149D01*
X497197Y-3623947D02*
G01*
X595749Y-3623947D01*
X497197Y-3623947D02*
G01*
X497197Y-3581783D01*
X502023Y-3567559D01*
X506595Y-3562987D01*
X515993Y-3558161D01*
X525391Y-3558161D01*
X534789Y-3562987D01*
X539615Y-3567559D01*
X544187Y-3581783D01*
X544187Y-3623947D02*
G01*
X544187Y-3581783D01*
X549013Y-3567559D01*
X553585Y-3562987D01*
X562983Y-3558161D01*
X576953Y-3558161D01*
X586351Y-3562987D01*
X591177Y-3567559D01*
X595749Y-3581783D01*
X595749Y-3623947D01*
X497197Y-3499233D02*
G01*
X502023Y-3508631D01*
X511421Y-3518029D01*
X520819Y-3522601D01*
X534789Y-3527427D01*
X558157Y-3527427D01*
X572381Y-3522601D01*
X581779Y-3518029D01*
X591177Y-3508631D01*
X595749Y-3499233D01*
X595749Y-3480437D01*
X591177Y-3471039D01*
X581779Y-3461641D01*
X572381Y-3457069D01*
X558157Y-3452243D01*
X534789Y-3452243D01*
X520819Y-3457069D01*
X511421Y-3461641D01*
X502023Y-3471039D01*
X497197Y-3480437D01*
X497197Y-3499233D01*
X497197Y-3393061D02*
G01*
X502023Y-3402459D01*
X511421Y-3411857D01*
X520819Y-3416683D01*
X534789Y-3421255D01*
X558157Y-3421255D01*
X572381Y-3416683D01*
X581779Y-3411857D01*
X591177Y-3402459D01*
X595749Y-3393061D01*
X595749Y-3374265D01*
X591177Y-3365121D01*
X581779Y-3355723D01*
X572381Y-3350897D01*
X558157Y-3346325D01*
X534789Y-3346325D01*
X520819Y-3350897D01*
X511421Y-3355723D01*
X502023Y-3365121D01*
X497197Y-3374265D01*
X497197Y-3393061D01*
X497197Y-3282571D02*
G01*
X595749Y-3282571D01*
X497197Y-3315337D02*
G01*
X497197Y-3249551D01*
X-569602Y-3598545D02*
G01*
X-471050Y-3598545D01*
X-569602Y-3598545D02*
G01*
X-569602Y-3556380D01*
X-564776Y-3542156D01*
X-560204Y-3537585D01*
X-550806Y-3532759D01*
X-541408Y-3532759D01*
X-532010Y-3537585D01*
X-527184Y-3542156D01*
X-522612Y-3556380D01*
X-522612Y-3598545D01*
X-522612Y-3565779D02*
G01*
X-471050Y-3532759D01*
X-555378Y-3436238D02*
G01*
X-564776Y-3445637D01*
X-569602Y-3459606D01*
X-569602Y-3478403D01*
X-564776Y-3492627D01*
X-555378Y-3502025D01*
X-545980Y-3502025D01*
X-536582Y-3497198D01*
X-532010Y-3492627D01*
X-527184Y-3483229D01*
X-517786Y-3455035D01*
X-513214Y-3445637D01*
X-508642Y-3440811D01*
X-499244Y-3436238D01*
X-485020Y-3436238D01*
X-475622Y-3445637D01*
X-471050Y-3459606D01*
X-471050Y-3478403D01*
X-475622Y-3492627D01*
X-485020Y-3502025D01*
X-569602Y-3372485D02*
G01*
X-471050Y-3372485D01*
X-569602Y-3405251D02*
G01*
X-569602Y-3339719D01*
X-1116467Y-3375154D02*
G01*
X-1116467Y-3411476D01*
X-1083701Y-3415286D01*
X-1087257Y-3411476D01*
X-1091067Y-3400554D01*
X-1091067Y-3389632D01*
X-1087257Y-3378964D01*
X-1080145Y-3371598D01*
X-1069223Y-3368042D01*
X-1061857Y-3368042D01*
X-1050935Y-3371598D01*
X-1043569Y-3378964D01*
X-1040013Y-3389632D01*
X-1040013Y-3400554D01*
X-1043569Y-3411476D01*
X-1047379Y-3415286D01*
X-1054491Y-3418842D01*
X-1116467Y-3343912D02*
G01*
X-1040013Y-3314956D01*
X-1116467Y-3285746D02*
G01*
X-1040013Y-3314956D01*
D18*
X-640214Y592452D02*
G01*
X-621926Y515998D01*
X-603892Y592452D02*
G01*
X-621926Y515998D01*
X-603892Y592452D02*
G01*
X-585604Y515998D01*
X-567570Y592452D02*
G01*
X-585604Y515998D01*
X-543440Y592452D02*
G01*
X-543440Y515998D01*
X-519564Y592452D02*
G01*
X-519564Y515998D01*
X-519564Y592452D02*
G01*
X-472320Y592452D01*
X-519564Y556130D02*
G01*
X-490354Y556130D01*
X-448190Y592452D02*
G01*
X-448190Y515998D01*
X-368180Y592452D02*
G01*
X-368180Y515998D01*
X-368180Y592452D02*
G01*
X-320936Y592452D01*
X-368180Y556130D02*
G01*
X-339224Y556130D01*
X-368180Y515998D02*
G01*
X-320936Y515998D01*
X-246006Y581530D02*
G01*
X-253372Y588642D01*
X-264294Y592452D01*
X-278772Y592452D01*
X-289694Y588642D01*
X-297060Y581530D01*
X-297060Y574164D01*
X-293250Y567052D01*
X-289694Y563242D01*
X-282328Y559686D01*
X-260484Y552320D01*
X-253372Y548764D01*
X-249562Y545208D01*
X-246006Y537842D01*
X-246006Y526920D01*
X-253372Y519554D01*
X-264294Y515998D01*
X-278772Y515998D01*
X-289694Y519554D01*
X-297060Y526920D01*
X-222130Y592452D02*
G01*
X-222130Y515998D01*
X-222130Y592452D02*
G01*
X-189364Y592452D01*
X-178442Y588642D01*
X-174886Y585086D01*
X-171076Y577974D01*
X-171076Y567052D01*
X-174886Y559686D01*
X-178442Y556130D01*
X-189364Y552320D01*
X-222130Y552320D01*
X-147200Y548764D02*
G01*
X-81668Y548764D01*
X-57792Y592452D02*
G01*
X-39504Y515998D01*
X-21216Y592452D02*
G01*
X-39504Y515998D01*
X-21216Y592452D02*
G01*
X-3182Y515998D01*
X15105Y592452D02*
G01*
X-3182Y515998D01*
X38981Y592452D02*
G01*
X38981Y515998D01*
X38981Y592452D02*
G01*
X71747Y592452D01*
X82669Y588642D01*
X86225Y585086D01*
X90035Y577974D01*
X90035Y570608D01*
X86225Y563242D01*
X82669Y559686D01*
X71747Y556130D01*
X38981Y556130D01*
X64635Y556130D02*
G01*
X90035Y515998D01*
X135755Y592452D02*
G01*
X128389Y588642D01*
X121277Y581530D01*
X117721Y574164D01*
X113911Y563242D01*
X113911Y545208D01*
X117721Y534286D01*
X121277Y526920D01*
X128389Y519554D01*
X135755Y515998D01*
X150233Y515998D01*
X157599Y519554D01*
X164965Y526920D01*
X168521Y534286D01*
X172077Y545208D01*
X172077Y563242D01*
X168521Y574164D01*
X164965Y581530D01*
X157599Y588642D01*
X150233Y592452D01*
X135755Y592452D01*
X218051Y592452D02*
G01*
X210685Y588642D01*
X203319Y581530D01*
X199763Y574164D01*
X196207Y563242D01*
X196207Y545208D01*
X199763Y534286D01*
X203319Y526920D01*
X210685Y519554D01*
X218051Y515998D01*
X232529Y515998D01*
X239895Y519554D01*
X247007Y526920D01*
X250817Y534286D01*
X254373Y545208D01*
X254373Y563242D01*
X250817Y574164D01*
X247007Y581530D01*
X239895Y588642D01*
X232529Y592452D01*
X218051Y592452D01*
X278249Y592452D02*
G01*
X278249Y515998D01*
X278249Y592452D02*
G01*
X307459Y515998D01*
X336415Y592452D02*
G01*
X307459Y515998D01*
X336415Y592452D02*
G01*
X336415Y515998D01*
X360545Y548764D02*
G01*
X426077Y548764D01*
X457319Y592452D02*
G01*
X497197Y592452D01*
X475353Y563242D01*
X486275Y563242D01*
X493641Y559686D01*
X497197Y556130D01*
X500753Y545208D01*
X500753Y537842D01*
X497197Y526920D01*
X490085Y519554D01*
X479163Y515998D01*
X468241Y515998D01*
X457319Y519554D01*
X453509Y523364D01*
X449953Y530476D01*
X528439Y574164D02*
G01*
X528439Y577974D01*
X532249Y585086D01*
X535805Y588642D01*
X543171Y592452D01*
X557649Y592452D01*
X564761Y588642D01*
X568571Y585086D01*
X572127Y577974D01*
X572127Y570608D01*
X568571Y563242D01*
X561205Y552320D01*
X524883Y515998D01*
X575683Y515998D01*
D23*
X293235Y-2172845D02*
G01*
X286885Y-2166495D01*
X277487Y-2163447D01*
X264787Y-2163447D01*
X255135Y-2166495D01*
X248785Y-2172845D01*
X248785Y-2179195D01*
X252087Y-2185545D01*
X255135Y-2188847D01*
X261485Y-2191895D01*
X280535Y-2198245D01*
X286885Y-2201547D01*
X290187Y-2204849D01*
X293235Y-2211199D01*
X293235Y-2220597D01*
X286885Y-2226947D01*
X277487Y-2230249D01*
X264787Y-2230249D01*
X255135Y-2226947D01*
X248785Y-2220597D01*
X314317Y-2163447D02*
G01*
X314317Y-2230249D01*
X335399Y-2163447D02*
G01*
X335399Y-2230249D01*
X335399Y-2230249D02*
G01*
X373499Y-2230249D01*
X419981Y-2163447D02*
G01*
X394581Y-2230249D01*
X419981Y-2163447D02*
G01*
X445381Y-2230249D01*
X403979Y-2207897D02*
G01*
X435983Y-2207897D01*
X466463Y-2163447D02*
G01*
X466463Y-2230249D01*
X466463Y-2163447D02*
G01*
X495165Y-2163447D01*
X504563Y-2166495D01*
X507865Y-2169797D01*
X510913Y-2176147D01*
X510913Y-2182497D01*
X507865Y-2188847D01*
X504563Y-2191895D01*
X495165Y-2195197D01*
X466463Y-2195197D02*
G01*
X495165Y-2195197D01*
X504563Y-2198245D01*
X507865Y-2201547D01*
X510913Y-2207897D01*
X510913Y-2217549D01*
X507865Y-2223899D01*
X504563Y-2226947D01*
X495165Y-2230249D01*
X466463Y-2230249D01*
X576445Y-2172845D02*
G01*
X570095Y-2166495D01*
X560697Y-2163447D01*
X547997Y-2163447D01*
X538345Y-2166495D01*
X531995Y-2172845D01*
X531995Y-2179195D01*
X535043Y-2185545D01*
X538345Y-2188847D01*
X544695Y-2191895D01*
X563745Y-2198245D01*
X570095Y-2201547D01*
X573397Y-2204849D01*
X576445Y-2211199D01*
X576445Y-2220597D01*
X570095Y-2226947D01*
X560697Y-2230249D01*
X547997Y-2230249D01*
X538345Y-2226947D01*
X531995Y-2220597D01*
X296537Y-2350899D02*
G01*
X293235Y-2344549D01*
X286885Y-2338199D01*
X280535Y-2334897D01*
X267835Y-2334897D01*
X261485Y-2338199D01*
X255135Y-2344549D01*
X252087Y-2350899D01*
X248785Y-2360297D01*
X248785Y-2376299D01*
X252087Y-2385951D01*
X255135Y-2392301D01*
X261485Y-2398651D01*
X267835Y-2401699D01*
X280535Y-2401699D01*
X286885Y-2398651D01*
X293235Y-2392301D01*
X296537Y-2385951D01*
X317619Y-2334897D02*
G01*
X317619Y-2401699D01*
X317619Y-2334897D02*
G01*
X346067Y-2334897D01*
X355719Y-2338199D01*
X358767Y-2341247D01*
X362069Y-2347597D01*
X362069Y-2357249D01*
X358767Y-2363599D01*
X355719Y-2366901D01*
X346067Y-2369949D01*
X317619Y-2369949D01*
X386199Y-2350899D02*
G01*
X386199Y-2347597D01*
X389501Y-2341247D01*
X392549Y-2338199D01*
X398899Y-2334897D01*
X411599Y-2334897D01*
X417949Y-2338199D01*
X421251Y-2341247D01*
X424299Y-2347597D01*
X424299Y-2353947D01*
X421251Y-2360297D01*
X414901Y-2369949D01*
X383151Y-2401699D01*
X427601Y-2401699D01*
X448683Y-2347597D02*
G01*
X455033Y-2344549D01*
X464431Y-2334897D01*
X464431Y-2401699D01*
X504563Y-2334897D02*
G01*
X495165Y-2338199D01*
X488815Y-2347597D01*
X485513Y-2363599D01*
X485513Y-2373251D01*
X488815Y-2388999D01*
X495165Y-2398651D01*
X504563Y-2401699D01*
X510913Y-2401699D01*
X520565Y-2398651D01*
X526915Y-2388999D01*
X529963Y-2373251D01*
X529963Y-2363599D01*
X526915Y-2347597D01*
X520565Y-2338199D01*
X510913Y-2334897D01*
X504563Y-2334897D01*
X554347Y-2350899D02*
G01*
X554347Y-2347597D01*
X557395Y-2341247D01*
X560697Y-2338199D01*
X567047Y-2334897D01*
X579747Y-2334897D01*
X586097Y-2338199D01*
X589145Y-2341247D01*
X592447Y-2347597D01*
X592447Y-2353947D01*
X589145Y-2360297D01*
X582795Y-2369949D01*
X551045Y-2401699D01*
X595495Y-2401699D01*
X248785Y-2506601D02*
G01*
X248785Y-2573403D01*
X248785Y-2506601D02*
G01*
X271137Y-2506601D01*
X280535Y-2509649D01*
X286885Y-2515999D01*
X290187Y-2522349D01*
X293235Y-2532001D01*
X293235Y-2548003D01*
X290187Y-2557401D01*
X286885Y-2563751D01*
X280535Y-2570101D01*
X271137Y-2573403D01*
X248785Y-2573403D01*
X362069Y-2522349D02*
G01*
X358767Y-2515999D01*
X352417Y-2509649D01*
X346067Y-2506601D01*
X333367Y-2506601D01*
X327017Y-2509649D01*
X320667Y-2515999D01*
X317619Y-2522349D01*
X314317Y-2532001D01*
X314317Y-2548003D01*
X317619Y-2557401D01*
X320667Y-2563751D01*
X327017Y-2570101D01*
X333367Y-2573403D01*
X346067Y-2573403D01*
X352417Y-2570101D01*
X358767Y-2563751D01*
X362069Y-2557401D01*
X383151Y-2506601D02*
G01*
X383151Y-2573403D01*
X383151Y-2573403D02*
G01*
X421251Y-2573403D01*
X461383Y-2506601D02*
G01*
X451731Y-2509649D01*
X445381Y-2519301D01*
X442333Y-2535303D01*
X442333Y-2544701D01*
X445381Y-2560703D01*
X451731Y-2570101D01*
X461383Y-2573403D01*
X467733Y-2573403D01*
X477131Y-2570101D01*
X483481Y-2560703D01*
X486783Y-2544701D01*
X486783Y-2535303D01*
X483481Y-2519301D01*
X477131Y-2509649D01*
X467733Y-2506601D01*
X461383Y-2506601D01*
X526915Y-2506601D02*
G01*
X517263Y-2509649D01*
X510913Y-2519301D01*
X507865Y-2535303D01*
X507865Y-2544701D01*
X510913Y-2560703D01*
X517263Y-2570101D01*
X526915Y-2573403D01*
X533265Y-2573403D01*
X542663Y-2570101D01*
X549267Y-2560703D01*
X552315Y-2544701D01*
X552315Y-2535303D01*
X549267Y-2519301D01*
X542663Y-2509649D01*
X533265Y-2506601D01*
X526915Y-2506601D01*
X573397Y-2506601D02*
G01*
X617847Y-2573403D01*
X617847Y-2506601D02*
G01*
X573397Y-2573403D01*
X248785Y-2691005D02*
G01*
X255135Y-2687703D01*
X264787Y-2678051D01*
X264787Y-2745107D01*
X301617Y-2678051D02*
G01*
X291965Y-2681353D01*
X288917Y-2687703D01*
X288917Y-2694053D01*
X291965Y-2700403D01*
X298315Y-2703705D01*
X311269Y-2706753D01*
X320667Y-2710055D01*
X327017Y-2716405D01*
X330319Y-2722755D01*
X330319Y-2732153D01*
X327017Y-2738503D01*
X323969Y-2741805D01*
X314317Y-2745107D01*
X301617Y-2745107D01*
X291965Y-2741805D01*
X288917Y-2738503D01*
X285615Y-2732153D01*
X285615Y-2722755D01*
X288917Y-2716405D01*
X295267Y-2710055D01*
X304665Y-2706753D01*
X317619Y-2703705D01*
X323969Y-2700403D01*
X327017Y-2694053D01*
X327017Y-2687703D01*
X323969Y-2681353D01*
X314317Y-2678051D01*
X301617Y-2678051D01*
X370451Y-2678051D02*
G01*
X360799Y-2681353D01*
X354449Y-2691005D01*
X351147Y-2706753D01*
X351147Y-2716405D01*
X354449Y-2732153D01*
X360799Y-2741805D01*
X370451Y-2745107D01*
X376801Y-2745107D01*
X386199Y-2741805D01*
X392549Y-2732153D01*
X395851Y-2716405D01*
X395851Y-2706753D01*
X392549Y-2691005D01*
X386199Y-2681353D01*
X376801Y-2678051D01*
X370451Y-2678051D01*
X455033Y-2687703D02*
G01*
X451731Y-2681353D01*
X442333Y-2678051D01*
X435983Y-2678051D01*
X426331Y-2681353D01*
X419981Y-2691005D01*
X416679Y-2706753D01*
X416679Y-2722755D01*
X419981Y-2735455D01*
X426331Y-2741805D01*
X435983Y-2745107D01*
X439031Y-2745107D01*
X448683Y-2741805D01*
X455033Y-2735455D01*
X458081Y-2725803D01*
X458081Y-2722755D01*
X455033Y-2713103D01*
X448683Y-2706753D01*
X439031Y-2703705D01*
X435983Y-2703705D01*
X426331Y-2706753D01*
X419981Y-2713103D01*
X416679Y-2722755D01*
X507865Y-2687703D02*
G01*
X507865Y-2745107D01*
X479163Y-2716405D02*
G01*
X536313Y-2716405D01*
D24*
X-738004Y-2455545D02*
G01*
X-767214Y-2531998D01*
X-738004Y-2455545D02*
G01*
X-709048Y-2531998D01*
X-756292Y-2506598D02*
G01*
X-719970Y-2506598D01*
X-684918Y-2455545D02*
G01*
X-684918Y-2531998D01*
X-684918Y-2455545D02*
G01*
X-655962Y-2531998D01*
X-626752Y-2455545D02*
G01*
X-655962Y-2531998D01*
X-626752Y-2455545D02*
G01*
X-626752Y-2531998D01*
X-551822Y-2466467D02*
G01*
X-559188Y-2459354D01*
X-570110Y-2455545D01*
X-584588Y-2455545D01*
X-595510Y-2459354D01*
X-602876Y-2466467D01*
X-602876Y-2473832D01*
X-599320Y-2480945D01*
X-595510Y-2484754D01*
X-588398Y-2488311D01*
X-566554Y-2495677D01*
X-559188Y-2499232D01*
X-555632Y-2502788D01*
X-551822Y-2510154D01*
X-551822Y-2521077D01*
X-559188Y-2528443D01*
X-570110Y-2531998D01*
X-584588Y-2531998D01*
X-595510Y-2528443D01*
X-602876Y-2521077D01*
X-527946Y-2470022D02*
G01*
X-520580Y-2466467D01*
X-509658Y-2455545D01*
X-509658Y-2531998D01*
X-485782Y-2470022D02*
G01*
X-478416Y-2466467D01*
X-467494Y-2455545D01*
X-467494Y-2531998D01*
X-443618Y-2470022D02*
G01*
X-436252Y-2466467D01*
X-425330Y-2455545D01*
X-425330Y-2531998D01*
X-350400Y-2455545D02*
G01*
X-386976Y-2531998D01*
X-401454Y-2455545D02*
G01*
X-350400Y-2455545D01*
X-759848Y-2637154D02*
G01*
X-719970Y-2637154D01*
X-741814Y-2666364D01*
X-730892Y-2666364D01*
X-723526Y-2669920D01*
X-719970Y-2673477D01*
X-716414Y-2684398D01*
X-716414Y-2691764D01*
X-719970Y-2702687D01*
X-727336Y-2709798D01*
X-738004Y-2713609D01*
X-748926Y-2713609D01*
X-759848Y-2709798D01*
X-763658Y-2706243D01*
X-767214Y-2699130D01*
X-688728Y-2695320D02*
G01*
X-692284Y-2699130D01*
X-688728Y-2702687D01*
X-684918Y-2699130D01*
X-688728Y-2695320D01*
X-653676Y-2637154D02*
G01*
X-613798Y-2637154D01*
X-635642Y-2666364D01*
X-624720Y-2666364D01*
X-617354Y-2669920D01*
X-613798Y-2673477D01*
X-610242Y-2684398D01*
X-610242Y-2691764D01*
X-613798Y-2702687D01*
X-620910Y-2709798D01*
X-631832Y-2713609D01*
X-642754Y-2713609D01*
X-653676Y-2709798D01*
X-657486Y-2706243D01*
X-661042Y-2699130D01*
X-530232Y-2637154D02*
G01*
X-530232Y-2713609D01*
X-530232Y-2637154D02*
G01*
X-504578Y-2637154D01*
X-493656Y-2640711D01*
X-486544Y-2648077D01*
X-482734Y-2655443D01*
X-479178Y-2666364D01*
X-479178Y-2684398D01*
X-482734Y-2695320D01*
X-486544Y-2702687D01*
X-493656Y-2709798D01*
X-504578Y-2713609D01*
X-530232Y-2713609D01*
X-455302Y-2637154D02*
G01*
X-455302Y-2713609D01*
X-455302Y-2637154D02*
G01*
X-404248Y-2713609D01*
X-404248Y-2637154D02*
G01*
X-404248Y-2713609D01*
X-362084Y-2637154D02*
G01*
X-373006Y-2640711D01*
X-376562Y-2648077D01*
X-376562Y-2655443D01*
X-373006Y-2662554D01*
X-365640Y-2666364D01*
X-351162Y-2669920D01*
X-340240Y-2673477D01*
X-333128Y-2680843D01*
X-329318Y-2688209D01*
X-329318Y-2699130D01*
X-333128Y-2706243D01*
X-336684Y-2709798D01*
X-347606Y-2713609D01*
X-362084Y-2713609D01*
X-373006Y-2709798D01*
X-376562Y-2706243D01*
X-380372Y-2699130D01*
X-380372Y-2688209D01*
X-376562Y-2680843D01*
X-369450Y-2673477D01*
X-358528Y-2669920D01*
X-344050Y-2666364D01*
X-336684Y-2662554D01*
X-333128Y-2655443D01*
X-333128Y-2648077D01*
X-336684Y-2640711D01*
X-347606Y-2637154D01*
X-362084Y-2637154D01*
X-305442Y-2651632D02*
G01*
X-298076Y-2648077D01*
X-287154Y-2637154D01*
X-287154Y-2713609D01*
X-263278Y-2651632D02*
G01*
X-255912Y-2648077D01*
X-244990Y-2637154D01*
X-244990Y-2713609D01*
D10*
X467360Y1490979D02*
G01*
X467360Y1252220D01*
X467360Y1252220D02*
G01*
X-162560Y1252220D01*
X-162560Y1252220D02*
G01*
X-162560Y1490979D01*
X-162560Y1490979D02*
G01*
X467360Y1490979D01*
X467360Y1719579D02*
G01*
X467360Y1480820D01*
X467360Y1480820D02*
G01*
X-162560Y1480820D01*
X-162560Y1480820D02*
G01*
X-162560Y1719579D01*
X-162560Y1719579D02*
G01*
X467360Y1719579D01*
X-162560Y1023620D02*
G01*
X-162560Y1262379D01*
X-162560Y1262379D02*
G01*
X467360Y1262379D01*
X467360Y1262379D02*
G01*
X467360Y1023620D01*
X467360Y1023620D02*
G01*
X-162560Y1023620D01*
X-1120780Y2256957D02*
G01*
X-1021280Y2256576D01*
X-1313350Y2257694D02*
G01*
X-1215595Y2257320D01*
D18*
X1371600Y2032000D02*
G01*
X1117600Y2032000D01*
X1117600Y3048000D01*
X1371600Y3048000D01*
X1371600Y2857500D01*
D19*
X1371600Y2032000D02*
G01*
X1371600Y2857500D01*
D18*
X-1066800Y2908300D02*
G01*
X-1066800Y3098800D01*
X-1320800Y3098800D01*
X-1320800Y2336800D01*
X-1066800Y2336800D01*
D19*
X-1066800Y2336800D02*
G01*
X-1066800Y2908300D01*
D18*
X-635000Y-2222500D02*
G01*
X-635000Y-2032000D01*
X-889000Y-2032000D01*
X-889000Y-2794000D01*
X-635000Y-2794000D01*
D19*
X-635000Y-2794000D02*
G01*
X-635000Y-2222500D01*
D18*
X-635000Y-1333500D02*
G01*
X-635000Y-1143000D01*
X-889000Y-1143000D01*
X-889000Y-1905000D01*
X-635000Y-1905000D01*
D19*
X-635000Y-1905000D02*
G01*
X-635000Y-1333500D01*
D18*
X-635000Y-241300D02*
G01*
X-635000Y-50800D01*
X-889000Y-50800D01*
X-889000Y-812800D01*
X-635000Y-812800D01*
D19*
X-635000Y-812800D02*
G01*
X-635000Y-241300D01*
D18*
X-635000Y698500D02*
G01*
X-635000Y889000D01*
X-889000Y889000D01*
X-889000Y127000D01*
X-635000Y127000D01*
D19*
X-635000Y127000D02*
G01*
X-635000Y698500D01*
D18*
X889000Y-4445000D02*
G01*
X635000Y-4445000D01*
X635000Y-4191000D01*
X889000Y-4191000D01*
X889000Y-4381500D01*
D19*
X889000Y-4445000D02*
G01*
X889000Y-4381500D01*
D18*
X-635000Y-4445000D02*
G01*
X-889000Y-4445000D01*
X-889000Y-4191000D01*
X-635000Y-4191000D01*
X-635000Y-4381500D01*
D19*
X-635000Y-4445000D02*
G01*
X-635000Y-4381500D01*
D10*
X-354464Y-3869949D02*
G01*
X-354464Y-3369569D01*
X387220Y-3369569D01*
X387220Y-3869949D01*
X-350154Y-3794889D02*
G01*
X386450Y-3794889D01*
X-313822Y-3369569D02*
G01*
X-354464Y-3369569D01*
X-354464Y-3524506D01*
X336420Y-3369569D02*
G01*
X387220Y-3369569D01*
X387220Y-3534669D01*
X-354464Y-3773426D02*
G01*
X-354464Y-3864869D01*
X387220Y-3773426D02*
G01*
X387220Y-3864869D01*
X-311284Y-3885184D02*
G01*
X-326882Y-3881704D01*
X-336684Y-3872484D02*
G01*
X-361830Y-3873502D01*
X399920Y-3872484D02*
G01*
X374159Y-3874084D01*
X374159Y-3874084D02*
G01*
X361820Y-3875026D01*
X-261757Y-3918206D02*
G01*
X327527Y-3918206D01*
X-276082Y-3940126D02*
G01*
X313202Y-3940126D01*
X-291317Y-3902026D02*
G01*
X-291317Y-3904569D01*
X-291317Y-3904569D02*
G01*
X-291317Y-3924884D01*
X328444Y-3902026D02*
G01*
X328444Y-3904569D01*
X328444Y-3904569D02*
G01*
X328444Y-3924884D01*
X-349384Y-3882649D02*
G01*
X-374784Y-3925826D01*
X-377322Y-3928369D02*
G01*
X-357360Y-3940126D01*
X-357360Y-3940126D02*
G01*
X-329417Y-3894404D01*
X387220Y-3882649D02*
G01*
X412620Y-3925826D01*
X412620Y-3928369D02*
G01*
X394474Y-3940126D01*
X394474Y-3940126D02*
G01*
X366544Y-3896946D01*
X-829188Y-3296785D02*
G01*
X-829188Y-3245985D01*
X-676788Y-3245985D01*
X-676788Y-3289965D01*
X-879988Y-3652385D02*
G01*
X-625988Y-3652385D01*
X-625988Y-3296785D01*
X-879988Y-3296785D01*
X-879988Y-3652385D01*
X-829188Y-3652385D01*
X-829188Y-3703185D01*
X-676788Y-3703185D01*
X-676788Y-3652385D01*
X720211Y-3294242D02*
G01*
X720211Y-3243442D01*
X872611Y-3243442D01*
X872611Y-3284880D01*
X669411Y-3649842D02*
G01*
X923411Y-3649842D01*
X923411Y-3294242D01*
X669411Y-3294242D01*
X669411Y-3649842D01*
X720211Y-3649842D01*
X720211Y-3700642D01*
X872611Y-3700642D01*
X872611Y-3649842D01*
X-882022Y1621152D02*
G01*
X-882022Y271145D01*
X-882022Y-928751D01*
X-882022Y-928751D02*
G01*
X918077Y-928751D01*
X-882022Y1621152D02*
G01*
X918077Y1621152D01*
X918077Y1621152D02*
G01*
X918077Y-928751D01*
X-882022Y1021206D02*
G01*
X717928Y1021206D01*
X918077Y1021206D01*
D20*
X756785Y1100452D02*
G01*
X756785Y1532252D01*
X248785Y1532252D01*
X248785Y1265552D01*
X-17914Y1265552D01*
X-17914Y1534795D01*
X-259214Y1534795D01*
X-259214Y1265552D01*
X-524134Y1265552D01*
X-524134Y1534795D01*
X-754514Y1534795D01*
X-754514Y1072509D01*
X-754514Y1075052D01*
X502785Y1100452D02*
G01*
X502785Y1534795D01*
D10*
X-767214Y719452D02*
G01*
X-767214Y-804547D01*
X756785Y-804547D01*
X756785Y719452D01*
X-767214Y719452D01*
X-1192664Y1713351D02*
G01*
X1220335Y1713351D01*
X-1402214Y-3614044D02*
G01*
X-1395864Y1510151D01*
X1398135Y1522851D02*
G01*
X1398135Y-3598547D01*
X1194935Y-3785748D02*
G01*
X-1218064Y-3785748D01*
D21*
X-894206Y-2328545D02*
G01*
X-132206Y-2328545D01*
X-132206Y-2836545D01*
X-894206Y-2836545D01*
X-894206Y-2328545D01*
X-5206Y-2074545D02*
G01*
X756793Y-2074545D01*
X756793Y-2836545D01*
X-5206Y-2836545D01*
X-5206Y-2074545D01*
D10*
G75*
G01*
X-1236401Y2249599D02*
G03*
X-1222713Y1760179I67996J-242999D01*
G75*
G01*
X-1117399Y1763601D02*
G03*
X-1087270Y2241266I-50996J242999D01*
G75*
G01*
X-1313350Y2257694D02*
G03*
X-1021281Y2256577I145075J-251396D01*
G75*
G01*
X-1218065Y-3785746D02*
G02*
X-1402212Y-3614156I-3735J180599D01*
G75*
G01*
X1398133Y-3601590D02*
G02*
X1194935Y-3785746I-195764J11825D01*
G75*
G01*
X-1395865Y1510154D02*
G02*
X-1192665Y1713365I202064J1147D01*
G75*
G01*
X369181Y-3893315D02*
G02*
X366895Y-3882647I13210J8410D01*
G75*
G01*
X-328049Y-3892807D02*
G03*
X-323985Y-3882647I-11595J10532D01*
G75*
G01*
X330319Y-3898141D02*
G02*
X369435Y-3882647I32959J-26084D01*
G75*
G01*
X315079Y-3917191D02*
G03*
X330319Y-3902713I238J15010D01*
G75*
G01*
X315079Y-3938781D02*
G03*
X330319Y-3923287I237J15010D01*
G75*
G01*
X-289695Y-3923287D02*
G03*
X-274455Y-3938781I15004J-484D01*
G75*
G01*
X-289695Y-3902713D02*
G03*
X-274455Y-3917191I15002J532D01*
G75*
G01*
X-334145Y-3882647D02*
G02*
X-289695Y-3898141I6997J-51433D01*
G75*
G01*
X1220335Y1713354D02*
G02*
X1398135Y1526156I-4350J-182167D01*
G75*
G01
X150190Y-2201545D02*
G03X150190Y-2201545I-28397J0D01*
G75*
G01
X872617Y-3472053D02*
G03X872617Y-3472053I-76200J0D01*
G75*
G01
X847217Y-3472053D02*
G03X847217Y-3472053I-50800J0D01*
G75*
G01
X821817Y-3472053D02*
G03X821817Y-3472053I-25400J0D01*
G75*
G01
X821817Y-3459353D02*
G03X821817Y-3459353I-12700J0D01*
G75*
G01
X796417Y-3484753D02*
G03X796417Y-3484753I-12700J0D01*
G75*
G01
X-676783Y-3474593D02*
G03X-676783Y-3474593I-76200J0D01*
G75*
G01
X-702183Y-3474593D02*
G03X-702183Y-3474593I-50800J0D01*
G75*
G01
X-727583Y-3474593D02*
G03X-727583Y-3474593I-25400J0D01*
G75*
G01
X-727583Y-3461893D02*
G03X-727583Y-3461893I-12700J0D01*
G75*
G01
X-752983Y-3487293D02*
G03X-752983Y-3487293I-12700J0D01*
G36*
X1155700Y1358900D02*
G01*
X1397000Y1358900D01*
X1397000Y863600D01*
X1155700Y863600D01*
G37*
G36*
X1168400Y-2946400D02*
G01*
X1397000Y-2946400D01*
X1397000Y-3225800D01*
X1168400Y-3225800D01*
G37*
G36*
X1168400Y-914400D02*
G01*
X1397000Y-914400D01*
X1397000Y-1193800D01*
X1168400Y-1193800D01*
G37*
M02*
