G04 Layer: BottomLayer*
G04 EasyEDA v6.5.1, 2022-07-30 07:33:27*
G04 979763ed04074d789ee4af78e92af6cb,10*
G04 Gerber Generator version 0.2*
G04 Scale: 100 percent, Rotated: No, Reflected: No *
G04 Dimensions in millimeters *
G04 leading zeros omitted , absolute positions ,4 integer and 5 decimal *
%FSLAX45Y45*%
%MOMM*%

%ADD11C,0.5000*%
%ADD12C,1.0000*%
%ADD13C,1.8796*%
%ADD14R,1.5748X1.5748*%
%ADD15C,1.5748*%
%ADD16C,1.8000*%
%ADD17C,3.0000*%

%LPD*%
D11*
X-1168400Y2201595D02*
G01*
X-271195Y2201595D01*
X-203200Y2133600D01*
X-1193800Y2463800D02*
G01*
X-1320800Y2336800D01*
X-1320800Y2223998D01*
X-1168400Y2071598D01*
X-355600Y1600200D02*
G01*
X-697001Y1941601D01*
X-1168400Y1941601D01*
X-355600Y1371600D02*
G01*
X-795604Y1811604D01*
X-1168400Y1811604D01*
X-1275206Y-804545D02*
G01*
X-990600Y-519937D01*
X-990600Y939800D01*
X-787400Y1143000D01*
X-355600Y1143000D01*
X-1275206Y-1566545D02*
G01*
X-1447800Y-1393952D01*
X-1447800Y2717800D01*
X-1193800Y2971800D01*
X-1275334Y-2328671D02*
G01*
X-1066800Y-2536952D01*
X-1066800Y-2794000D01*
X-889000Y-2971800D01*
X-584200Y-2971800D01*
X279400Y-2108200D01*
X279400Y1828800D01*
X609600Y2159000D01*
X1244600Y2159000D01*
X-1275334Y-1820671D02*
G01*
X-965200Y-2130552D01*
X-965200Y-2768600D01*
X-863600Y-2870200D01*
X-635000Y-2870200D01*
X127000Y-2108200D01*
X127000Y1905000D01*
X1143000Y2921000D01*
X1244600Y2921000D01*
X1264793Y-1058545D02*
G01*
X889000Y-682752D01*
X889000Y1143000D01*
X660400Y1371600D01*
X1264793Y973454D02*
G01*
X1264793Y995806D01*
X660400Y1600200D01*
X-762000Y254000D02*
G01*
X-736600Y254000D01*
X-508000Y25400D01*
X-762000Y-685800D02*
G01*
X-663717Y-685800D01*
X-508000Y-530082D01*
X-508000Y25400D01*
X-508000Y-530082D02*
G01*
X-508000Y-1524000D01*
X-762000Y-1778000D01*
X-762000Y-2667000D02*
G01*
X-508000Y-2413000D01*
X-508000Y-1498600D01*
D13*
G01*
X660400Y1371600D03*
G01*
X-355600Y1371600D03*
G01*
X660400Y1600200D03*
G01*
X-355600Y1600200D03*
G01*
X-355600Y1143000D03*
G01*
X660400Y1143000D03*
D14*
G01*
X1244600Y2921000D03*
D15*
G01*
X1244600Y2667000D03*
G01*
X1244600Y2413000D03*
G01*
X1244600Y2159000D03*
G01*
X-1193800Y2463800D03*
G01*
X-1193800Y2717800D03*
D14*
G01*
X-1193800Y2971800D03*
D15*
G01*
X-762000Y-2667000D03*
G01*
X-762000Y-2413000D03*
D14*
G01*
X-762000Y-2159000D03*
D15*
G01*
X-762000Y-1778000D03*
G01*
X-762000Y-1524000D03*
D14*
G01*
X-762000Y-1270000D03*
D15*
G01*
X-762000Y-685800D03*
G01*
X-762000Y-431800D03*
D14*
G01*
X-762000Y-177800D03*
D15*
G01*
X-762000Y254000D03*
G01*
X-762000Y508000D03*
D14*
G01*
X-762000Y762000D03*
D16*
G01*
X1264793Y1227454D03*
G01*
X1264793Y973454D03*
G01*
X1264793Y719454D03*
G01*
X1264793Y465454D03*
G01*
X1264793Y211454D03*
G01*
X1264793Y-42545D03*
G01*
X1264793Y-296545D03*
G01*
X1264793Y-550545D03*
G01*
X1264793Y-804545D03*
G01*
X1264793Y-1058545D03*
G01*
X1264793Y-1312545D03*
G01*
X1264793Y-1566545D03*
G01*
X1264793Y-1820545D03*
G01*
X1264793Y-2074545D03*
G01*
X1264793Y-2328545D03*
G01*
X1264793Y-2582545D03*
G01*
X1264793Y-2836545D03*
G01*
X1264793Y-3090545D03*
G01*
X1264793Y-3344545D03*
G01*
X-1275206Y-3344545D03*
G01*
X-1275206Y-3090545D03*
G01*
X-1275206Y-2836545D03*
G01*
X-1275206Y-2582545D03*
G01*
X-1275206Y-2328545D03*
G01*
X-1275206Y-2074545D03*
G01*
X-1275206Y-1820545D03*
G01*
X-1275206Y-1566545D03*
G01*
X-1275206Y-1312545D03*
G01*
X-1275206Y-1058545D03*
G01*
X-1275206Y-804545D03*
G01*
X-1275206Y-550545D03*
G01*
X-1275206Y-296545D03*
G01*
X-1275206Y-42545D03*
G01*
X-1275206Y211454D03*
G01*
X-1275206Y465454D03*
G01*
X-1275206Y719454D03*
G01*
X-1275206Y973454D03*
G01*
X-1275206Y1227454D03*
D12*
G01*
X-203200Y2133600D03*
X-1168400Y2201595D02*
G01*
X-1168400Y2201595D01*
X-1168400Y2071598D02*
G01*
X-1168400Y2071598D01*
X-1168400Y1941601D02*
G01*
X-1168400Y1941601D01*
X-1168400Y1811604D02*
G01*
X-1168400Y1811604D01*
D17*
X762000Y-4218000D02*
G01*
X762000Y-4417999D01*
X-762000Y-4218000D02*
G01*
X-762000Y-4417999D01*
M02*
