G04 Layer: BottomSolderMaskLayer*
G04 EasyEDA v6.5.1, 2022-07-30 07:33:27*
G04 979763ed04074d789ee4af78e92af6cb,10*
G04 Gerber Generator version 0.2*
G04 Scale: 100 percent, Rotated: No, Reflected: No *
G04 Dimensions in millimeters *
G04 leading zeros omitted , absolute positions ,4 integer and 5 decimal *
%FSLAX45Y45*%
%MOMM*%

%ADD25C,1.1016*%
%ADD26C,3.1016*%
%ADD27C,1.9812*%
%ADD29C,1.6764*%
%ADD30C,2.0032*%

%LPD*%
D25*
X-1168400Y2201595D02*
G01*
X-1168400Y2201595D01*
X-1168400Y2071598D02*
G01*
X-1168400Y2071598D01*
X-1168400Y1941601D02*
G01*
X-1168400Y1941601D01*
X-1168400Y1811604D02*
G01*
X-1168400Y1811604D01*
D26*
X762000Y-4218000D02*
G01*
X762000Y-4417999D01*
X-762000Y-4218000D02*
G01*
X-762000Y-4417999D01*
D27*
G01*
X660400Y1371600D03*
G01*
X-355600Y1371600D03*
G01*
X660400Y1600200D03*
G01*
X-355600Y1600200D03*
G01*
X-355600Y1143000D03*
G01*
X660400Y1143000D03*
G36*
X1160779Y2837179D02*
G01*
X1160779Y3004820D01*
X1328420Y3004820D01*
X1328420Y2837179D01*
G37*
D29*
G01*
X1244600Y2667000D03*
G01*
X1244600Y2413000D03*
G01*
X1244600Y2159000D03*
G01*
X-1193800Y2463800D03*
G01*
X-1193800Y2717800D03*
G36*
X-1277620Y2887979D02*
G01*
X-1277620Y3055620D01*
X-1109979Y3055620D01*
X-1109979Y2887979D01*
G37*
G01*
X-762000Y-2667000D03*
G01*
X-762000Y-2413000D03*
G36*
X-845820Y-2242820D02*
G01*
X-845820Y-2075179D01*
X-678179Y-2075179D01*
X-678179Y-2242820D01*
G37*
G01*
X-762000Y-1778000D03*
G01*
X-762000Y-1524000D03*
G36*
X-845820Y-1353820D02*
G01*
X-845820Y-1186179D01*
X-678179Y-1186179D01*
X-678179Y-1353820D01*
G37*
G01*
X-762000Y-685800D03*
G01*
X-762000Y-431800D03*
G36*
X-845820Y-261620D02*
G01*
X-845820Y-93979D01*
X-678179Y-93979D01*
X-678179Y-261620D01*
G37*
G01*
X-762000Y254000D03*
G01*
X-762000Y508000D03*
G36*
X-845820Y678179D02*
G01*
X-845820Y845820D01*
X-678179Y845820D01*
X-678179Y678179D01*
G37*
D30*
G01*
X1264793Y1227454D03*
G01*
X1264793Y973454D03*
G01*
X1264793Y719454D03*
G01*
X1264793Y465454D03*
G01*
X1264793Y211454D03*
G01*
X1264793Y-42545D03*
G01*
X1264793Y-296545D03*
G01*
X1264793Y-550545D03*
G01*
X1264793Y-804545D03*
G01*
X1264793Y-1058545D03*
G01*
X1264793Y-1312545D03*
G01*
X1264793Y-1566545D03*
G01*
X1264793Y-1820545D03*
G01*
X1264793Y-2074545D03*
G01*
X1264793Y-2328545D03*
G01*
X1264793Y-2582545D03*
G01*
X1264793Y-2836545D03*
G01*
X1264793Y-3090545D03*
G01*
X1264793Y-3344545D03*
G01*
X-1275206Y-3344545D03*
G01*
X-1275206Y-3090545D03*
G01*
X-1275206Y-2836545D03*
G01*
X-1275206Y-2582545D03*
G01*
X-1275206Y-2328545D03*
G01*
X-1275206Y-2074545D03*
G01*
X-1275206Y-1820545D03*
G01*
X-1275206Y-1566545D03*
G01*
X-1275206Y-1312545D03*
G01*
X-1275206Y-1058545D03*
G01*
X-1275206Y-804545D03*
G01*
X-1275206Y-550545D03*
G01*
X-1275206Y-296545D03*
G01*
X-1275206Y-42545D03*
G01*
X-1275206Y211454D03*
G01*
X-1275206Y465454D03*
G01*
X-1275206Y719454D03*
G01*
X-1275206Y973454D03*
G01*
X-1275206Y1227454D03*
M02*
